M48
; DRILL file {KiCad 5.1.0} date Thu 04 Apr 2019 12:50:11 PM JST
; FORMAT={-:-/ absolute / metric / decimal}
; #@! TF.CreationDate,2019-04-04T12:50:11+09:00
; #@! TF.GenerationSoftware,Kicad,Pcbnew,5.1.0
; #@! TF.FileFunction,NonPlated,1,2,NPTH
FMAT,2
METRIC
T1C0.300
T2C1.200
T3C1.300
T4C2.000
T5C4.100
%
G90
G05
T2
X16.105Y-15.875
X23.105Y-15.875
T3
X15.23Y-71.695
X15.23Y-82.695
X26.23Y-82.695
X26.23Y-71.695
X33.645Y-37.405
X33.645Y-48.405
X44.645Y-48.405
X44.645Y-37.405
X52.06Y-54.55
X52.06Y-65.55
X63.06Y-65.55
X63.06Y-54.55
X15.23Y-54.55
X15.23Y-65.55
X26.23Y-65.55
X26.23Y-54.55
X33.645Y-88.84
X33.645Y-99.84
X44.645Y-99.84
X44.645Y-88.84
X33.645Y-20.26
X33.645Y-31.26
X44.645Y-31.26
X44.645Y-20.26
X15.23Y-20.26
X15.23Y-31.26
X26.23Y-31.26
X26.23Y-20.26
X52.06Y-37.405
X52.06Y-48.405
X63.06Y-48.405
X63.06Y-37.405
X15.23Y-88.84
X15.23Y-99.84
X26.23Y-99.84
X26.23Y-88.84
X52.06Y-88.84
X52.06Y-99.84
X63.06Y-99.84
X63.06Y-88.84
X52.06Y-71.695
X52.06Y-82.695
X63.06Y-82.695
X63.06Y-71.695
X33.645Y-71.695
X33.645Y-82.695
X44.645Y-82.695
X44.645Y-71.695
X33.645Y-54.55
X33.645Y-65.55
X44.645Y-65.55
X44.645Y-54.55
X52.06Y-20.26
X52.06Y-31.26
X63.06Y-31.26
X63.06Y-20.26
X15.23Y-37.405
X15.23Y-48.405
X26.23Y-48.405
X26.23Y-37.405
T1
G00X18.33Y-59.05
M15
G01X18.33Y-62.85
M16
G05
G00X18.33Y-59.05
M15
G01X23.13Y-59.05
M16
G05
G00X18.33Y-62.85
M15
G01X23.13Y-62.85
M16
G05
G00X23.13Y-59.05
M15
G01X23.13Y-62.85
M16
G05
G00X36.745Y-93.34
M15
G01X36.745Y-97.14
M16
G05
G00X36.745Y-93.34
M15
G01X41.545Y-93.34
M16
G05
G00X36.745Y-97.14
M15
G01X41.545Y-97.14
M16
G05
G00X41.545Y-93.34
M15
G01X41.545Y-97.14
M16
G05
G00X36.745Y-24.76
M15
G01X36.745Y-28.56
M16
G05
G00X36.745Y-24.76
M15
G01X41.545Y-24.76
M16
G05
G00X36.745Y-28.56
M15
G01X41.545Y-28.56
M16
G05
G00X41.545Y-24.76
M15
G01X41.545Y-28.56
M16
G05
G00X18.33Y-24.76
M15
G01X18.33Y-28.56
M16
G05
G00X18.33Y-24.76
M15
G01X23.13Y-24.76
M16
G05
G00X18.33Y-28.56
M15
G01X23.13Y-28.56
M16
G05
G00X23.13Y-24.76
M15
G01X23.13Y-28.56
M16
G05
G00X55.16Y-41.905
M15
G01X55.16Y-45.705
M16
G05
G00X55.16Y-41.905
M15
G01X59.96Y-41.905
M16
G05
G00X55.16Y-45.705
M15
G01X59.96Y-45.705
M16
G05
G00X59.96Y-41.905
M15
G01X59.96Y-45.705
M16
G05
G00X18.33Y-93.34
M15
G01X18.33Y-97.14
M16
G05
G00X18.33Y-93.34
M15
G01X23.13Y-93.34
M16
G05
G00X18.33Y-97.14
M15
G01X23.13Y-97.14
M16
G05
G00X23.13Y-93.34
M15
G01X23.13Y-97.14
M16
G05
G00X55.16Y-93.34
M15
G01X55.16Y-97.14
M16
G05
G00X55.16Y-93.34
M15
G01X59.96Y-93.34
M16
G05
G00X55.16Y-97.14
M15
G01X59.96Y-97.14
M16
G05
G00X59.96Y-93.34
M15
G01X59.96Y-97.14
M16
G05
G00X55.16Y-76.195
M15
G01X55.16Y-79.995
M16
G05
G00X55.16Y-76.195
M15
G01X59.96Y-76.195
M16
G05
G00X55.16Y-79.995
M15
G01X59.96Y-79.995
M16
G05
G00X59.96Y-76.195
M15
G01X59.96Y-79.995
M16
G05
G00X36.745Y-76.195
M15
G01X36.745Y-79.995
M16
G05
G00X36.745Y-76.195
M15
G01X41.545Y-76.195
M16
G05
G00X36.745Y-79.995
M15
G01X41.545Y-79.995
M16
G05
G00X41.545Y-76.195
M15
G01X41.545Y-79.995
M16
G05
G00X36.745Y-59.05
M15
G01X36.745Y-62.85
M16
G05
G00X36.745Y-59.05
M15
G01X41.545Y-59.05
M16
G05
G00X36.745Y-62.85
M15
G01X41.545Y-62.85
M16
G05
G00X41.545Y-59.05
M15
G01X41.545Y-62.85
M16
G05
G00X55.16Y-24.76
M15
G01X55.16Y-28.56
M16
G05
G00X55.16Y-24.76
M15
G01X59.96Y-24.76
M16
G05
G00X55.16Y-28.56
M15
G01X59.96Y-28.56
M16
G05
G00X59.96Y-24.76
M15
G01X59.96Y-28.56
M16
G05
G00X18.33Y-41.905
M15
G01X18.33Y-45.705
M16
G05
G00X18.33Y-41.905
M15
G01X23.13Y-41.905
M16
G05
G00X18.33Y-45.705
M15
G01X23.13Y-45.705
M16
G05
G00X23.13Y-41.905
M15
G01X23.13Y-45.705
M16
G05
G00X18.33Y-76.195
M15
G01X18.33Y-79.995
M16
G05
G00X18.33Y-76.195
M15
G01X23.13Y-76.195
M16
G05
G00X18.33Y-79.995
M15
G01X23.13Y-79.995
M16
G05
G00X23.13Y-76.195
M15
G01X23.13Y-79.995
M16
G05
G00X36.745Y-41.905
M15
G01X36.745Y-45.705
M16
G05
G00X36.745Y-41.905
M15
G01X41.545Y-41.905
M16
G05
G00X36.745Y-45.705
M15
G01X41.545Y-45.705
M16
G05
G00X41.545Y-41.905
M15
G01X41.545Y-45.705
M16
G05
G00X55.16Y-59.05
M15
G01X55.16Y-62.85
M16
G05
G00X55.16Y-59.05
M15
G01X59.96Y-59.05
M16
G05
G00X55.16Y-62.85
M15
G01X59.96Y-62.85
M16
G05
G00X59.96Y-59.05
M15
G01X59.96Y-62.85
M16
G05
T4
G00X19.18Y-42.755
M15
G01X19.18Y-44.855
M16
G05
G00X22.28Y-42.755
M15
G01X22.28Y-44.855
M16
G05
G00X19.18Y-77.045
M15
G01X19.18Y-79.145
M16
G05
G00X22.28Y-77.045
M15
G01X22.28Y-79.145
M16
G05
G00X37.595Y-42.755
M15
G01X37.595Y-44.855
M16
G05
G00X40.695Y-42.755
M15
G01X40.695Y-44.855
M16
G05
G00X56.01Y-59.9
M15
G01X56.01Y-62.0
M16
G05
G00X59.11Y-59.9
M15
G01X59.11Y-62.0
M16
G05
G00X19.18Y-59.9
M15
G01X19.18Y-62.0
M16
G05
G00X22.28Y-59.9
M15
G01X22.28Y-62.0
M16
G05
G00X37.595Y-94.19
M15
G01X37.595Y-96.29
M16
G05
G00X40.695Y-94.19
M15
G01X40.695Y-96.29
M16
G05
G00X37.595Y-25.61
M15
G01X37.595Y-27.71
M16
G05
G00X40.695Y-25.61
M15
G01X40.695Y-27.71
M16
G05
G00X19.18Y-25.61
M15
G01X19.18Y-27.71
M16
G05
G00X22.28Y-25.61
M15
G01X22.28Y-27.71
M16
G05
G00X56.01Y-42.755
M15
G01X56.01Y-44.855
M16
G05
G00X59.11Y-42.755
M15
G01X59.11Y-44.855
M16
G05
G00X19.18Y-94.19
M15
G01X19.18Y-96.29
M16
G05
G00X22.28Y-94.19
M15
G01X22.28Y-96.29
M16
G05
G00X56.01Y-94.19
M15
G01X56.01Y-96.29
M16
G05
G00X59.11Y-94.19
M15
G01X59.11Y-96.29
M16
G05
G00X56.01Y-77.045
M15
G01X56.01Y-79.145
M16
G05
G00X59.11Y-77.045
M15
G01X59.11Y-79.145
M16
G05
G00X37.595Y-77.045
M15
G01X37.595Y-79.145
M16
G05
G00X40.695Y-77.045
M15
G01X40.695Y-79.145
M16
G05
G00X37.595Y-59.9
M15
G01X37.595Y-62.0
M16
G05
G00X40.695Y-59.9
M15
G01X40.695Y-62.0
M16
G05
G00X56.01Y-25.61
M15
G01X56.01Y-27.71
M16
G05
G00X59.11Y-25.61
M15
G01X59.11Y-27.71
M16
G05
T5
G00X57.06Y-26.66
M15
G01X58.06Y-26.66
M16
G05
G00X20.23Y-43.805
M15
G01X21.23Y-43.805
M16
G05
G00X20.23Y-78.095
M15
G01X21.23Y-78.095
M16
G05
G00X38.645Y-43.805
M15
G01X39.645Y-43.805
M16
G05
G00X57.06Y-60.95
M15
G01X58.06Y-60.95
M16
G05
G00X20.23Y-60.95
M15
G01X21.23Y-60.95
M16
G05
G00X38.645Y-95.24
M15
G01X39.645Y-95.24
M16
G05
G00X38.645Y-26.66
M15
G01X39.645Y-26.66
M16
G05
G00X20.23Y-26.66
M15
G01X21.23Y-26.66
M16
G05
G00X57.06Y-43.805
M15
G01X58.06Y-43.805
M16
G05
G00X20.23Y-95.24
M15
G01X21.23Y-95.24
M16
G05
G00X57.06Y-95.24
M15
G01X58.06Y-95.24
M16
G05
G00X57.06Y-78.095
M15
G01X58.06Y-78.095
M16
G05
G00X38.645Y-78.095
M15
G01X39.645Y-78.095
M16
G05
G00X38.645Y-60.95
M15
G01X39.645Y-60.95
M16
G05
T0
M30
