M48
; DRILL file {KiCad 5.1.0} date Thu 04 Apr 2019 12:50:11 PM JST
; FORMAT={-:-/ absolute / metric / decimal}
; #@! TF.CreationDate,2019-04-04T12:50:11+09:00
; #@! TF.GenerationSoftware,Kicad,Pcbnew,5.1.0
; #@! TF.FileFunction,Plated,1,2,PTH
FMAT,2
METRIC
T1C0.400
T2C0.800
T3C1.000
T4C1.092
T5C1.100
%
G90
G05
T1
X26.035Y-22.86
X45.651Y-25.966
X48.895Y-49.53
X52.705Y-29.21
T2
X17.145Y-68.58
X24.765Y-68.58
X29.845Y-22.225
X29.845Y-29.845
X35.56Y-68.58
X43.18Y-68.58
X45.72Y-13.97
X53.34Y-13.97
X35.56Y-85.725
X43.18Y-85.725
X34.925Y-13.97
X42.545Y-13.97
X48.895Y-55.88
X48.895Y-63.5
X29.845Y-38.735
X29.845Y-46.355
X17.145Y-51.435
X24.765Y-51.435
X17.145Y-34.29
X24.765Y-34.29
X53.975Y-51.435
X61.595Y-51.435
X53.975Y-68.58
X61.595Y-68.58
X48.26Y-38.735
X48.26Y-46.355
X35.56Y-51.435
X43.18Y-51.435
X16.51Y-85.725
X24.13Y-85.725
X48.26Y-22.225
X48.26Y-29.845
X53.975Y-85.725
X61.595Y-85.725
T3
X17.33Y-62.05
X24.13Y-62.05
X35.745Y-96.34
X42.545Y-96.34
X35.745Y-27.76
X42.545Y-27.76
X17.33Y-27.76
X24.13Y-27.76
X54.16Y-44.905
X60.96Y-44.905
X17.33Y-96.34
X24.13Y-96.34
X54.16Y-96.34
X60.96Y-96.34
X54.16Y-79.195
X60.96Y-79.195
X35.745Y-79.195
X42.545Y-79.195
X35.745Y-62.05
X42.545Y-62.05
X54.16Y-27.76
X60.96Y-27.76
X17.33Y-44.905
X24.13Y-44.905
X17.33Y-79.195
X24.13Y-79.195
X35.745Y-44.905
X42.545Y-44.905
X54.16Y-62.05
X60.96Y-62.05
T4
X36.83Y-17.78
X36.83Y-33.02
X39.37Y-17.78
X39.37Y-33.02
X41.91Y-17.78
X41.91Y-33.02
X44.45Y-17.78
X44.45Y-33.02
X46.99Y-17.78
X46.99Y-33.02
X49.53Y-17.78
X49.53Y-33.02
X52.07Y-17.78
X52.07Y-33.02
X54.61Y-17.78
X54.61Y-33.02
X57.15Y-17.78
X57.15Y-33.02
X59.69Y-17.78
X59.69Y-33.02
X62.23Y-17.78
X62.23Y-33.02
X64.77Y-17.78
X64.77Y-33.02
T5
X17.33Y-74.295
X24.13Y-74.295
X35.745Y-40.005
X42.545Y-40.005
X54.16Y-57.15
X60.96Y-57.15
X17.33Y-57.15
X24.13Y-57.15
X35.745Y-91.44
X42.545Y-91.44
X35.745Y-22.86
X42.545Y-22.86
X17.33Y-22.86
X24.13Y-22.86
X54.16Y-40.005
X60.96Y-40.005
X17.33Y-91.44
X24.13Y-91.44
X54.16Y-91.44
X60.96Y-91.44
X54.16Y-74.295
X60.96Y-74.295
X17.78Y-20.32
X17.78Y-30.48
X27.94Y-20.32
X27.94Y-22.86
X27.94Y-25.4
X27.94Y-27.94
X27.94Y-30.48
X35.745Y-74.295
X42.545Y-74.295
X35.745Y-57.15
X42.545Y-57.15
X54.16Y-22.86
X60.96Y-22.86
X17.33Y-40.005
X24.13Y-40.005
T3
G00X17.655Y-13.775
M15
G01X18.155Y-13.775
M16
G05
G00X20.655Y-13.775
M15
G01X21.155Y-13.775
M16
G05
G00X24.655Y-13.775
M15
G01X25.155Y-13.775
M16
G05
G00X26.155Y-17.975
M15
G01X26.655Y-17.975
M16
G05
T0
M30
