G04 #@! TF.GenerationSoftware,KiCad,Pcbnew,5.1.0*
G04 #@! TF.CreationDate,2019-04-04T12:50:07+09:00*
G04 #@! TF.ProjectId,pg1425-namecard-ver1,70673134-3235-42d6-9e61-6d6563617264,rev?*
G04 #@! TF.SameCoordinates,Original*
G04 #@! TF.FileFunction,Legend,Bot*
G04 #@! TF.FilePolarity,Positive*
%FSLAX46Y46*%
G04 Gerber Fmt 4.6, Leading zero omitted, Abs format (unit mm)*
G04 Created by KiCad (PCBNEW 5.1.0) date 2019-04-04 12:50:07*
%MOMM*%
%LPD*%
G04 APERTURE LIST*
%ADD10C,0.150000*%
%ADD11C,0.120000*%
%ADD12C,0.381000*%
%ADD13C,1.702000*%
%ADD14C,1.402000*%
%ADD15O,5.202000X4.202000*%
%ADD16O,2.102000X4.202000*%
%ADD17O,0.402000X4.202000*%
%ADD18O,5.202000X0.402000*%
%ADD19O,1.702000X1.702000*%
%ADD20O,2.402000X1.602000*%
%ADD21C,1.302000*%
%ADD22R,1.102000X1.402000*%
%ADD23R,1.702000X1.702000*%
%ADD24R,1.402000X1.102000*%
%ADD25C,1.854600*%
%ADD26R,1.854600X1.854600*%
G04 APERTURE END LIST*
D10*
X50159992Y-101339836D02*
X64959992Y-101339836D01*
X64959992Y-87339836D02*
X50159992Y-87339836D01*
X50159992Y-87339836D02*
X50159992Y-101339836D01*
X64959992Y-101339836D02*
X64959992Y-87339836D01*
X31744992Y-101339836D02*
X46544992Y-101339836D01*
X46544992Y-87339836D02*
X31744992Y-87339836D01*
X31744992Y-87339836D02*
X31744992Y-101339836D01*
X46544992Y-101339836D02*
X46544992Y-87339836D01*
X13329992Y-101339836D02*
X28129992Y-101339836D01*
X28129992Y-87339836D02*
X13329992Y-87339836D01*
X13329992Y-87339836D02*
X13329992Y-101339836D01*
X28129992Y-101339836D02*
X28129992Y-87339836D01*
X50159992Y-84194836D02*
X64959992Y-84194836D01*
X64959992Y-70194836D02*
X50159992Y-70194836D01*
X50159992Y-70194836D02*
X50159992Y-84194836D01*
X64959992Y-84194836D02*
X64959992Y-70194836D01*
X31744992Y-84194836D02*
X46544992Y-84194836D01*
X46544992Y-70194836D02*
X31744992Y-70194836D01*
X31744992Y-70194836D02*
X31744992Y-84194836D01*
X46544992Y-84194836D02*
X46544992Y-70194836D01*
X13329992Y-84194836D02*
X28129992Y-84194836D01*
X28129992Y-70194836D02*
X13329992Y-70194836D01*
X13329992Y-70194836D02*
X13329992Y-84194836D01*
X28129992Y-84194836D02*
X28129992Y-70194836D01*
X50159992Y-67049836D02*
X64959992Y-67049836D01*
X64959992Y-53049836D02*
X50159992Y-53049836D01*
X50159992Y-53049836D02*
X50159992Y-67049836D01*
X64959992Y-67049836D02*
X64959992Y-53049836D01*
X31744992Y-67049836D02*
X46544992Y-67049836D01*
X46544992Y-53049836D02*
X31744992Y-53049836D01*
X31744992Y-53049836D02*
X31744992Y-67049836D01*
X46544992Y-67049836D02*
X46544992Y-53049836D01*
X13329992Y-67049836D02*
X28129992Y-67049836D01*
X28129992Y-53049836D02*
X13329992Y-53049836D01*
X13329992Y-53049836D02*
X13329992Y-67049836D01*
X28129992Y-67049836D02*
X28129992Y-53049836D01*
X50159992Y-49904836D02*
X64959992Y-49904836D01*
X64959992Y-35904836D02*
X50159992Y-35904836D01*
X50159992Y-35904836D02*
X50159992Y-49904836D01*
X64959992Y-49904836D02*
X64959992Y-35904836D01*
X31744992Y-49904836D02*
X46544992Y-49904836D01*
X46544992Y-35904836D02*
X31744992Y-35904836D01*
X31744992Y-35904836D02*
X31744992Y-49904836D01*
X46544992Y-49904836D02*
X46544992Y-35904836D01*
X13329992Y-49904836D02*
X28129992Y-49904836D01*
X28129992Y-35904836D02*
X13329992Y-35904836D01*
X13329992Y-35904836D02*
X13329992Y-49904836D01*
X28129992Y-49904836D02*
X28129992Y-35904836D01*
X50159992Y-32759836D02*
X64959992Y-32759836D01*
X64959992Y-18759836D02*
X50159992Y-18759836D01*
X50159992Y-18759836D02*
X50159992Y-32759836D01*
X64959992Y-32759836D02*
X64959992Y-18759836D01*
X31744992Y-32759836D02*
X46544992Y-32759836D01*
X46544992Y-18759836D02*
X31744992Y-18759836D01*
X31744992Y-18759836D02*
X31744992Y-32759836D01*
X46544992Y-32759836D02*
X46544992Y-18759836D01*
X13329992Y-32759836D02*
X28129992Y-32759836D01*
X28129992Y-18759836D02*
X13329992Y-18759836D01*
X13329992Y-18759836D02*
X13329992Y-32759836D01*
X28129992Y-32759836D02*
X28129992Y-18759836D01*
X29210000Y-19050000D02*
X16510000Y-19050000D01*
X29210000Y-31750000D02*
X29210000Y-19050000D01*
X16510000Y-31750000D02*
X29210000Y-31750000D01*
X16510000Y-19050000D02*
X16510000Y-31750000D01*
X26705000Y-12875000D02*
X14605000Y-12875000D01*
X26705000Y-18875000D02*
X26705000Y-12875000D01*
X14605000Y-18875000D02*
X26705000Y-18875000D01*
X14605000Y-12875000D02*
X14605000Y-18875000D01*
X14605000Y-13375000D02*
X12605000Y-13375000D01*
X12605000Y-13375000D02*
X12605000Y-18375000D01*
X12605000Y-18375000D02*
X14605000Y-18375000D01*
D11*
X59305000Y-84605300D02*
X59305000Y-86845300D01*
X59905000Y-84605300D02*
X59905000Y-86845300D01*
X59185000Y-84605300D02*
X59185000Y-86845300D01*
X59065000Y-84605300D02*
X59065000Y-86845300D01*
X59905000Y-86845300D02*
X55665000Y-86845300D01*
X55665000Y-84605300D02*
X59905000Y-84605300D01*
X55665000Y-86845300D02*
X55665000Y-84605300D01*
X40890000Y-84605300D02*
X40890000Y-86845300D01*
X41490000Y-84605300D02*
X41490000Y-86845300D01*
X40770000Y-84605300D02*
X40770000Y-86845300D01*
X40650000Y-84605300D02*
X40650000Y-86845300D01*
X41490000Y-86845300D02*
X37250000Y-86845300D01*
X37250000Y-84605300D02*
X41490000Y-84605300D01*
X37250000Y-86845300D02*
X37250000Y-84605300D01*
X21840000Y-84605300D02*
X21840000Y-86845300D01*
X22440000Y-84605300D02*
X22440000Y-86845300D01*
X21720000Y-84605300D02*
X21720000Y-86845300D01*
X21600000Y-84605300D02*
X21600000Y-86845300D01*
X22440000Y-86845300D02*
X18200000Y-86845300D01*
X18200000Y-84605300D02*
X22440000Y-84605300D01*
X18200000Y-86845300D02*
X18200000Y-84605300D01*
X59305000Y-67460300D02*
X59305000Y-69700300D01*
X59905000Y-67460300D02*
X59905000Y-69700300D01*
X59185000Y-67460300D02*
X59185000Y-69700300D01*
X59065000Y-67460300D02*
X59065000Y-69700300D01*
X59905000Y-69700300D02*
X55665000Y-69700300D01*
X55665000Y-67460300D02*
X59905000Y-67460300D01*
X55665000Y-69700300D02*
X55665000Y-67460300D01*
X40890000Y-67460300D02*
X40890000Y-69700300D01*
X41490000Y-67460300D02*
X41490000Y-69700300D01*
X40770000Y-67460300D02*
X40770000Y-69700300D01*
X40650000Y-67460300D02*
X40650000Y-69700300D01*
X41490000Y-69700300D02*
X37250000Y-69700300D01*
X37250000Y-67460300D02*
X41490000Y-67460300D01*
X37250000Y-69700300D02*
X37250000Y-67460300D01*
X22475000Y-67460300D02*
X22475000Y-69700300D01*
X23075000Y-67460300D02*
X23075000Y-69700300D01*
X22355000Y-67460300D02*
X22355000Y-69700300D01*
X22235000Y-67460300D02*
X22235000Y-69700300D01*
X23075000Y-69700300D02*
X18835000Y-69700300D01*
X18835000Y-67460300D02*
X23075000Y-67460300D01*
X18835000Y-69700300D02*
X18835000Y-67460300D01*
X47775300Y-58170000D02*
X50015300Y-58170000D01*
X47775300Y-57570000D02*
X50015300Y-57570000D01*
X47775300Y-58290000D02*
X50015300Y-58290000D01*
X47775300Y-58410000D02*
X50015300Y-58410000D01*
X50015300Y-57570000D02*
X50015300Y-61810000D01*
X47775300Y-61810000D02*
X47775300Y-57570000D01*
X50015300Y-61810000D02*
X47775300Y-61810000D01*
X40890000Y-50315300D02*
X40890000Y-52555300D01*
X41490000Y-50315300D02*
X41490000Y-52555300D01*
X40770000Y-50315300D02*
X40770000Y-52555300D01*
X40650000Y-50315300D02*
X40650000Y-52555300D01*
X41490000Y-52555300D02*
X37250000Y-52555300D01*
X37250000Y-50315300D02*
X41490000Y-50315300D01*
X37250000Y-52555300D02*
X37250000Y-50315300D01*
X22475000Y-50315300D02*
X22475000Y-52555300D01*
X23075000Y-50315300D02*
X23075000Y-52555300D01*
X22355000Y-50315300D02*
X22355000Y-52555300D01*
X22235000Y-50315300D02*
X22235000Y-52555300D01*
X23075000Y-52555300D02*
X18835000Y-52555300D01*
X18835000Y-50315300D02*
X23075000Y-50315300D01*
X18835000Y-52555300D02*
X18835000Y-50315300D01*
X59305000Y-50315300D02*
X59305000Y-52555300D01*
X59905000Y-50315300D02*
X59905000Y-52555300D01*
X59185000Y-50315300D02*
X59185000Y-52555300D01*
X59065000Y-50315300D02*
X59065000Y-52555300D01*
X59905000Y-52555300D02*
X55665000Y-52555300D01*
X55665000Y-50315300D02*
X59905000Y-50315300D01*
X55665000Y-52555300D02*
X55665000Y-50315300D01*
X47140300Y-41025000D02*
X49380300Y-41025000D01*
X47140300Y-40425000D02*
X49380300Y-40425000D01*
X47140300Y-41145000D02*
X49380300Y-41145000D01*
X47140300Y-41265000D02*
X49380300Y-41265000D01*
X49380300Y-40425000D02*
X49380300Y-44665000D01*
X47140300Y-44665000D02*
X47140300Y-40425000D01*
X49380300Y-44665000D02*
X47140300Y-44665000D01*
X28725300Y-41025000D02*
X30965300Y-41025000D01*
X28725300Y-40425000D02*
X30965300Y-40425000D01*
X28725300Y-41145000D02*
X30965300Y-41145000D01*
X28725300Y-41265000D02*
X30965300Y-41265000D01*
X30965300Y-40425000D02*
X30965300Y-44665000D01*
X28725300Y-44665000D02*
X28725300Y-40425000D01*
X30965300Y-44665000D02*
X28725300Y-44665000D01*
X47140300Y-24515000D02*
X49380300Y-24515000D01*
X47140300Y-23915000D02*
X49380300Y-23915000D01*
X47140300Y-24635000D02*
X49380300Y-24635000D01*
X47140300Y-24755000D02*
X49380300Y-24755000D01*
X49380300Y-23915000D02*
X49380300Y-28155000D01*
X47140300Y-28155000D02*
X47140300Y-23915000D01*
X49380300Y-28155000D02*
X47140300Y-28155000D01*
X28725300Y-24515000D02*
X30965300Y-24515000D01*
X28725300Y-23915000D02*
X30965300Y-23915000D01*
X28725300Y-24635000D02*
X30965300Y-24635000D01*
X28725300Y-24755000D02*
X30965300Y-24755000D01*
X30965300Y-23915000D02*
X30965300Y-28155000D01*
X28725300Y-28155000D02*
X28725300Y-23915000D01*
X30965300Y-28155000D02*
X28725300Y-28155000D01*
X22475000Y-33170300D02*
X22475000Y-35410300D01*
X23075000Y-33170300D02*
X23075000Y-35410300D01*
X22355000Y-33170300D02*
X22355000Y-35410300D01*
X22235000Y-33170300D02*
X22235000Y-35410300D01*
X23075000Y-35410300D02*
X18835000Y-35410300D01*
X18835000Y-33170300D02*
X23075000Y-33170300D01*
X18835000Y-35410300D02*
X18835000Y-33170300D01*
D12*
X35560000Y-31750000D02*
X35560000Y-34290000D01*
X33020000Y-16510000D02*
X33020000Y-34290000D01*
X33020000Y-34290000D02*
X66040000Y-34290000D01*
X66040000Y-34290000D02*
X66040000Y-16510000D01*
X66040000Y-16510000D02*
X33020000Y-16510000D01*
D10*
G36*
X41449030Y-19555365D02*
G01*
X41549030Y-19555365D01*
X41549030Y-19055365D01*
X41449030Y-19055365D01*
X41449030Y-19555365D01*
G37*
X41449030Y-19555365D02*
X41549030Y-19555365D01*
X41549030Y-19055365D01*
X41449030Y-19055365D01*
X41449030Y-19555365D01*
G36*
X41449030Y-19555365D02*
G01*
X41749030Y-19555365D01*
X41749030Y-19455365D01*
X41449030Y-19455365D01*
X41449030Y-19555365D01*
G37*
X41449030Y-19555365D02*
X41749030Y-19555365D01*
X41749030Y-19455365D01*
X41449030Y-19455365D01*
X41449030Y-19555365D01*
G36*
X42049030Y-19555365D02*
G01*
X42249030Y-19555365D01*
X42249030Y-19455365D01*
X42049030Y-19455365D01*
X42049030Y-19555365D01*
G37*
X42049030Y-19555365D02*
X42249030Y-19555365D01*
X42249030Y-19455365D01*
X42049030Y-19455365D01*
X42049030Y-19555365D01*
G36*
X41449030Y-19155365D02*
G01*
X42249030Y-19155365D01*
X42249030Y-19055365D01*
X41449030Y-19055365D01*
X41449030Y-19155365D01*
G37*
X41449030Y-19155365D02*
X42249030Y-19155365D01*
X42249030Y-19055365D01*
X41449030Y-19055365D01*
X41449030Y-19155365D01*
G36*
X41849030Y-19355365D02*
G01*
X41949030Y-19355365D01*
X41949030Y-19255365D01*
X41849030Y-19255365D01*
X41849030Y-19355365D01*
G37*
X41849030Y-19355365D02*
X41949030Y-19355365D01*
X41949030Y-19255365D01*
X41849030Y-19255365D01*
X41849030Y-19355365D01*
D12*
X35560000Y-31750000D02*
X38100000Y-31750000D01*
X38100000Y-31750000D02*
X38100000Y-34290000D01*
D10*
X61793404Y-87955380D02*
X61793404Y-86955380D01*
X61221976Y-87955380D02*
X61650547Y-87383952D01*
X61221976Y-86955380D02*
X61793404Y-87526809D01*
X43378404Y-87955380D02*
X43378404Y-86955380D01*
X42806976Y-87955380D02*
X43235547Y-87383952D01*
X42806976Y-86955380D02*
X43378404Y-87526809D01*
X24328404Y-87955380D02*
X24328404Y-86955380D01*
X23756976Y-87955380D02*
X24185547Y-87383952D01*
X23756976Y-86955380D02*
X24328404Y-87526809D01*
X61793404Y-70810380D02*
X61793404Y-69810380D01*
X61221976Y-70810380D02*
X61650547Y-70238952D01*
X61221976Y-69810380D02*
X61793404Y-70381809D01*
X43378404Y-70810380D02*
X43378404Y-69810380D01*
X42806976Y-70810380D02*
X43235547Y-70238952D01*
X42806976Y-69810380D02*
X43378404Y-70381809D01*
X24963404Y-70810380D02*
X24963404Y-69810380D01*
X24391976Y-70810380D02*
X24820547Y-70238952D01*
X24391976Y-69810380D02*
X24963404Y-70381809D01*
X51125380Y-55681595D02*
X50125380Y-55681595D01*
X51125380Y-56253023D02*
X50553952Y-55824452D01*
X50125380Y-56253023D02*
X50696809Y-55681595D01*
X43378404Y-53665380D02*
X43378404Y-52665380D01*
X42806976Y-53665380D02*
X43235547Y-53093952D01*
X42806976Y-52665380D02*
X43378404Y-53236809D01*
X24963404Y-53665380D02*
X24963404Y-52665380D01*
X24391976Y-53665380D02*
X24820547Y-53093952D01*
X24391976Y-52665380D02*
X24963404Y-53236809D01*
X61793404Y-53665380D02*
X61793404Y-52665380D01*
X61221976Y-53665380D02*
X61650547Y-53093952D01*
X61221976Y-52665380D02*
X61793404Y-53236809D01*
X50490380Y-38536595D02*
X49490380Y-38536595D01*
X50490380Y-39108023D02*
X49918952Y-38679452D01*
X49490380Y-39108023D02*
X50061809Y-38536595D01*
X32075380Y-38536595D02*
X31075380Y-38536595D01*
X32075380Y-39108023D02*
X31503952Y-38679452D01*
X31075380Y-39108023D02*
X31646809Y-38536595D01*
X50490380Y-22026595D02*
X49490380Y-22026595D01*
X50490380Y-22598023D02*
X49918952Y-22169452D01*
X49490380Y-22598023D02*
X50061809Y-22026595D01*
X32075380Y-22026595D02*
X31075380Y-22026595D01*
X32075380Y-22598023D02*
X31503952Y-22169452D01*
X31075380Y-22598023D02*
X31646809Y-22026595D01*
X24963404Y-36520380D02*
X24963404Y-35520380D01*
X24391976Y-36520380D02*
X24820547Y-35948952D01*
X24391976Y-35520380D02*
X24963404Y-36091809D01*
X42213809Y-19826666D02*
X42251904Y-19940952D01*
X42251904Y-20131428D01*
X42213809Y-20207619D01*
X42175714Y-20245714D01*
X42099523Y-20283809D01*
X42023333Y-20283809D01*
X41947142Y-20245714D01*
X41909047Y-20207619D01*
X41870952Y-20131428D01*
X41832857Y-19979047D01*
X41794761Y-19902857D01*
X41756666Y-19864761D01*
X41680476Y-19826666D01*
X41604285Y-19826666D01*
X41528095Y-19864761D01*
X41490000Y-19902857D01*
X41451904Y-19979047D01*
X41451904Y-20169523D01*
X41490000Y-20283809D01*
X41451904Y-20512380D02*
X41451904Y-20969523D01*
X42251904Y-20740952D02*
X41451904Y-20740952D01*
X36391904Y-26781395D02*
X36391904Y-27238538D01*
X37191904Y-27009967D02*
X36391904Y-27009967D01*
X36391904Y-27429014D02*
X37191904Y-27962348D01*
X36391904Y-27962348D02*
X37191904Y-27429014D01*
X36391904Y-28419491D02*
X36391904Y-28495681D01*
X36430000Y-28571872D01*
X36468095Y-28609967D01*
X36544285Y-28648062D01*
X36696666Y-28686157D01*
X36887142Y-28686157D01*
X37039523Y-28648062D01*
X37115714Y-28609967D01*
X37153809Y-28571872D01*
X37191904Y-28495681D01*
X37191904Y-28419491D01*
X37153809Y-28343300D01*
X37115714Y-28305205D01*
X37039523Y-28267110D01*
X36887142Y-28229014D01*
X36696666Y-28229014D01*
X36544285Y-28267110D01*
X36468095Y-28305205D01*
X36430000Y-28343300D01*
X36391904Y-28419491D01*
X36353809Y-29600443D02*
X37382380Y-28914729D01*
X37191904Y-29867110D02*
X36391904Y-29867110D01*
X36391904Y-30057586D01*
X36430000Y-30171872D01*
X36506190Y-30248062D01*
X36582380Y-30286157D01*
X36734761Y-30324252D01*
X36849047Y-30324252D01*
X37001428Y-30286157D01*
X37077619Y-30248062D01*
X37153809Y-30171872D01*
X37191904Y-30057586D01*
X37191904Y-29867110D01*
X36391904Y-30590919D02*
X36391904Y-31086157D01*
X36696666Y-30819491D01*
X36696666Y-30933776D01*
X36734761Y-31009967D01*
X36772857Y-31048062D01*
X36849047Y-31086157D01*
X37039523Y-31086157D01*
X37115714Y-31048062D01*
X37153809Y-31009967D01*
X37191904Y-30933776D01*
X37191904Y-30705205D01*
X37153809Y-30629014D01*
X37115714Y-30590919D01*
X62172857Y-19615190D02*
X62210952Y-19729476D01*
X62249047Y-19767571D01*
X62325238Y-19805666D01*
X62439523Y-19805666D01*
X62515714Y-19767571D01*
X62553809Y-19729476D01*
X62591904Y-19653285D01*
X62591904Y-19348523D01*
X61791904Y-19348523D01*
X61791904Y-19615190D01*
X61830000Y-19691380D01*
X61868095Y-19729476D01*
X61944285Y-19767571D01*
X62020476Y-19767571D01*
X62096666Y-19729476D01*
X62134761Y-19691380D01*
X62172857Y-19615190D01*
X62172857Y-19348523D01*
X61868095Y-20110428D02*
X61830000Y-20148523D01*
X61791904Y-20224714D01*
X61791904Y-20415190D01*
X61830000Y-20491380D01*
X61868095Y-20529476D01*
X61944285Y-20567571D01*
X62020476Y-20567571D01*
X62134761Y-20529476D01*
X62591904Y-20072333D01*
X62591904Y-20567571D01*
X54552857Y-19672333D02*
X54552857Y-19405666D01*
X54971904Y-19405666D02*
X54171904Y-19405666D01*
X54171904Y-19786619D01*
X54171904Y-20015190D02*
X54171904Y-20548523D01*
X54971904Y-20205666D01*
X52012857Y-19672333D02*
X52012857Y-19405666D01*
X52431904Y-19405666D02*
X51631904Y-19405666D01*
X51631904Y-19786619D01*
X51631904Y-20434238D02*
X51631904Y-20281857D01*
X51670000Y-20205666D01*
X51708095Y-20167571D01*
X51822380Y-20091380D01*
X51974761Y-20053285D01*
X52279523Y-20053285D01*
X52355714Y-20091380D01*
X52393809Y-20129476D01*
X52431904Y-20205666D01*
X52431904Y-20358047D01*
X52393809Y-20434238D01*
X52355714Y-20472333D01*
X52279523Y-20510428D01*
X52089047Y-20510428D01*
X52012857Y-20472333D01*
X51974761Y-20434238D01*
X51936666Y-20358047D01*
X51936666Y-20205666D01*
X51974761Y-20129476D01*
X52012857Y-20091380D01*
X52089047Y-20053285D01*
X49472857Y-19672333D02*
X49472857Y-19405666D01*
X49891904Y-19405666D02*
X49091904Y-19405666D01*
X49091904Y-19786619D01*
X49091904Y-20472333D02*
X49091904Y-20091380D01*
X49472857Y-20053285D01*
X49434761Y-20091380D01*
X49396666Y-20167571D01*
X49396666Y-20358047D01*
X49434761Y-20434238D01*
X49472857Y-20472333D01*
X49549047Y-20510428D01*
X49739523Y-20510428D01*
X49815714Y-20472333D01*
X49853809Y-20434238D01*
X49891904Y-20358047D01*
X49891904Y-20167571D01*
X49853809Y-20091380D01*
X49815714Y-20053285D01*
X37191904Y-19386619D02*
X36810952Y-19119952D01*
X37191904Y-18929476D02*
X36391904Y-18929476D01*
X36391904Y-19234238D01*
X36430000Y-19310428D01*
X36468095Y-19348523D01*
X36544285Y-19386619D01*
X36658571Y-19386619D01*
X36734761Y-19348523D01*
X36772857Y-19310428D01*
X36810952Y-19234238D01*
X36810952Y-18929476D01*
X36963333Y-19691380D02*
X36963333Y-20072333D01*
X37191904Y-19615190D02*
X36391904Y-19881857D01*
X37191904Y-20148523D01*
X36391904Y-20339000D02*
X37191904Y-20529476D01*
X36620476Y-20681857D01*
X37191904Y-20834238D01*
X36391904Y-21024714D01*
X38970000Y-19329476D02*
X38931904Y-19253285D01*
X38931904Y-19139000D01*
X38970000Y-19024714D01*
X39046190Y-18948523D01*
X39122380Y-18910428D01*
X39274761Y-18872333D01*
X39389047Y-18872333D01*
X39541428Y-18910428D01*
X39617619Y-18948523D01*
X39693809Y-19024714D01*
X39731904Y-19139000D01*
X39731904Y-19215190D01*
X39693809Y-19329476D01*
X39655714Y-19367571D01*
X39389047Y-19367571D01*
X39389047Y-19215190D01*
X39731904Y-19710428D02*
X38931904Y-19710428D01*
X39731904Y-20167571D01*
X38931904Y-20167571D01*
X39731904Y-20548523D02*
X38931904Y-20548523D01*
X38931904Y-20739000D01*
X38970000Y-20853285D01*
X39046190Y-20929476D01*
X39122380Y-20967571D01*
X39274761Y-21005666D01*
X39389047Y-21005666D01*
X39541428Y-20967571D01*
X39617619Y-20929476D01*
X39693809Y-20853285D01*
X39731904Y-20739000D01*
X39731904Y-20548523D01*
X44011904Y-18872333D02*
X44811904Y-19139000D01*
X44011904Y-19405666D01*
X44735714Y-20129476D02*
X44773809Y-20091380D01*
X44811904Y-19977095D01*
X44811904Y-19900904D01*
X44773809Y-19786619D01*
X44697619Y-19710428D01*
X44621428Y-19672333D01*
X44469047Y-19634238D01*
X44354761Y-19634238D01*
X44202380Y-19672333D01*
X44126190Y-19710428D01*
X44050000Y-19786619D01*
X44011904Y-19900904D01*
X44011904Y-19977095D01*
X44050000Y-20091380D01*
X44088095Y-20129476D01*
X44735714Y-20929476D02*
X44773809Y-20891380D01*
X44811904Y-20777095D01*
X44811904Y-20700904D01*
X44773809Y-20586619D01*
X44697619Y-20510428D01*
X44621428Y-20472333D01*
X44469047Y-20434238D01*
X44354761Y-20434238D01*
X44202380Y-20472333D01*
X44126190Y-20510428D01*
X44050000Y-20586619D01*
X44011904Y-20700904D01*
X44011904Y-20777095D01*
X44050000Y-20891380D01*
X44088095Y-20929476D01*
X46932857Y-19672333D02*
X46932857Y-19405666D01*
X47351904Y-19405666D02*
X46551904Y-19405666D01*
X46551904Y-19786619D01*
X46818571Y-20434238D02*
X47351904Y-20434238D01*
X46513809Y-20243761D02*
X47085238Y-20053285D01*
X47085238Y-20548523D01*
X57092857Y-19615190D02*
X57130952Y-19729476D01*
X57169047Y-19767571D01*
X57245238Y-19805666D01*
X57359523Y-19805666D01*
X57435714Y-19767571D01*
X57473809Y-19729476D01*
X57511904Y-19653285D01*
X57511904Y-19348523D01*
X56711904Y-19348523D01*
X56711904Y-19615190D01*
X56750000Y-19691380D01*
X56788095Y-19729476D01*
X56864285Y-19767571D01*
X56940476Y-19767571D01*
X57016666Y-19729476D01*
X57054761Y-19691380D01*
X57092857Y-19615190D01*
X57092857Y-19348523D01*
X57511904Y-20567571D02*
X57511904Y-20110428D01*
X57511904Y-20339000D02*
X56711904Y-20339000D01*
X56826190Y-20262809D01*
X56902380Y-20186619D01*
X56940476Y-20110428D01*
X59632857Y-19615190D02*
X59670952Y-19729476D01*
X59709047Y-19767571D01*
X59785238Y-19805666D01*
X59899523Y-19805666D01*
X59975714Y-19767571D01*
X60013809Y-19729476D01*
X60051904Y-19653285D01*
X60051904Y-19348523D01*
X59251904Y-19348523D01*
X59251904Y-19615190D01*
X59290000Y-19691380D01*
X59328095Y-19729476D01*
X59404285Y-19767571D01*
X59480476Y-19767571D01*
X59556666Y-19729476D01*
X59594761Y-19691380D01*
X59632857Y-19615190D01*
X59632857Y-19348523D01*
X59251904Y-20072333D02*
X59251904Y-20567571D01*
X59556666Y-20300904D01*
X59556666Y-20415190D01*
X59594761Y-20491380D01*
X59632857Y-20529476D01*
X59709047Y-20567571D01*
X59899523Y-20567571D01*
X59975714Y-20529476D01*
X60013809Y-20491380D01*
X60051904Y-20415190D01*
X60051904Y-20186619D01*
X60013809Y-20110428D01*
X59975714Y-20072333D01*
X64712857Y-19615190D02*
X64750952Y-19729476D01*
X64789047Y-19767571D01*
X64865238Y-19805666D01*
X64979523Y-19805666D01*
X65055714Y-19767571D01*
X65093809Y-19729476D01*
X65131904Y-19653285D01*
X65131904Y-19348523D01*
X64331904Y-19348523D01*
X64331904Y-19615190D01*
X64370000Y-19691380D01*
X64408095Y-19729476D01*
X64484285Y-19767571D01*
X64560476Y-19767571D01*
X64636666Y-19729476D01*
X64674761Y-19691380D01*
X64712857Y-19615190D01*
X64712857Y-19348523D01*
X64331904Y-20491380D02*
X64331904Y-20339000D01*
X64370000Y-20262809D01*
X64408095Y-20224714D01*
X64522380Y-20148523D01*
X64674761Y-20110428D01*
X64979523Y-20110428D01*
X65055714Y-20148523D01*
X65093809Y-20186619D01*
X65131904Y-20262809D01*
X65131904Y-20415190D01*
X65093809Y-20491380D01*
X65055714Y-20529476D01*
X64979523Y-20567571D01*
X64789047Y-20567571D01*
X64712857Y-20529476D01*
X64674761Y-20491380D01*
X64636666Y-20415190D01*
X64636666Y-20262809D01*
X64674761Y-20186619D01*
X64712857Y-20148523D01*
X64789047Y-20110428D01*
X64712857Y-30537190D02*
X64750952Y-30651476D01*
X64789047Y-30689571D01*
X64865238Y-30727666D01*
X64979523Y-30727666D01*
X65055714Y-30689571D01*
X65093809Y-30651476D01*
X65131904Y-30575285D01*
X65131904Y-30270523D01*
X64331904Y-30270523D01*
X64331904Y-30537190D01*
X64370000Y-30613380D01*
X64408095Y-30651476D01*
X64484285Y-30689571D01*
X64560476Y-30689571D01*
X64636666Y-30651476D01*
X64674761Y-30613380D01*
X64712857Y-30537190D01*
X64712857Y-30270523D01*
X64331904Y-31451476D02*
X64331904Y-31070523D01*
X64712857Y-31032428D01*
X64674761Y-31070523D01*
X64636666Y-31146714D01*
X64636666Y-31337190D01*
X64674761Y-31413380D01*
X64712857Y-31451476D01*
X64789047Y-31489571D01*
X64979523Y-31489571D01*
X65055714Y-31451476D01*
X65093809Y-31413380D01*
X65131904Y-31337190D01*
X65131904Y-31146714D01*
X65093809Y-31070523D01*
X65055714Y-31032428D01*
X62172857Y-30537190D02*
X62210952Y-30651476D01*
X62249047Y-30689571D01*
X62325238Y-30727666D01*
X62439523Y-30727666D01*
X62515714Y-30689571D01*
X62553809Y-30651476D01*
X62591904Y-30575285D01*
X62591904Y-30270523D01*
X61791904Y-30270523D01*
X61791904Y-30537190D01*
X61830000Y-30613380D01*
X61868095Y-30651476D01*
X61944285Y-30689571D01*
X62020476Y-30689571D01*
X62096666Y-30651476D01*
X62134761Y-30613380D01*
X62172857Y-30537190D01*
X62172857Y-30270523D01*
X62058571Y-31413380D02*
X62591904Y-31413380D01*
X61753809Y-31222904D02*
X62325238Y-31032428D01*
X62325238Y-31527666D01*
X59632857Y-30308619D02*
X59632857Y-30575285D01*
X60051904Y-30689571D02*
X60051904Y-30308619D01*
X59251904Y-30308619D01*
X59251904Y-30689571D01*
X59251904Y-31375285D02*
X59251904Y-31222904D01*
X59290000Y-31146714D01*
X59328095Y-31108619D01*
X59442380Y-31032428D01*
X59594761Y-30994333D01*
X59899523Y-30994333D01*
X59975714Y-31032428D01*
X60013809Y-31070523D01*
X60051904Y-31146714D01*
X60051904Y-31299095D01*
X60013809Y-31375285D01*
X59975714Y-31413380D01*
X59899523Y-31451476D01*
X59709047Y-31451476D01*
X59632857Y-31413380D01*
X59594761Y-31375285D01*
X59556666Y-31299095D01*
X59556666Y-31146714D01*
X59594761Y-31070523D01*
X59632857Y-31032428D01*
X59709047Y-30994333D01*
X57511904Y-30270523D02*
X56711904Y-30270523D01*
X56711904Y-30461000D01*
X56750000Y-30575285D01*
X56826190Y-30651476D01*
X56902380Y-30689571D01*
X57054761Y-30727666D01*
X57169047Y-30727666D01*
X57321428Y-30689571D01*
X57397619Y-30651476D01*
X57473809Y-30575285D01*
X57511904Y-30461000D01*
X57511904Y-30270523D01*
X56711904Y-30994333D02*
X56711904Y-31527666D01*
X57511904Y-31184809D01*
X54895714Y-30727666D02*
X54933809Y-30689571D01*
X54971904Y-30575285D01*
X54971904Y-30499095D01*
X54933809Y-30384809D01*
X54857619Y-30308619D01*
X54781428Y-30270523D01*
X54629047Y-30232428D01*
X54514761Y-30232428D01*
X54362380Y-30270523D01*
X54286190Y-30308619D01*
X54210000Y-30384809D01*
X54171904Y-30499095D01*
X54171904Y-30575285D01*
X54210000Y-30689571D01*
X54248095Y-30727666D01*
X54171904Y-31413380D02*
X54171904Y-31261000D01*
X54210000Y-31184809D01*
X54248095Y-31146714D01*
X54362380Y-31070523D01*
X54514761Y-31032428D01*
X54819523Y-31032428D01*
X54895714Y-31070523D01*
X54933809Y-31108619D01*
X54971904Y-31184809D01*
X54971904Y-31337190D01*
X54933809Y-31413380D01*
X54895714Y-31451476D01*
X54819523Y-31489571D01*
X54629047Y-31489571D01*
X54552857Y-31451476D01*
X54514761Y-31413380D01*
X54476666Y-31337190D01*
X54476666Y-31184809D01*
X54514761Y-31108619D01*
X54552857Y-31070523D01*
X54629047Y-31032428D01*
X52431904Y-30270523D02*
X51631904Y-30270523D01*
X51631904Y-30461000D01*
X51670000Y-30575285D01*
X51746190Y-30651476D01*
X51822380Y-30689571D01*
X51974761Y-30727666D01*
X52089047Y-30727666D01*
X52241428Y-30689571D01*
X52317619Y-30651476D01*
X52393809Y-30575285D01*
X52431904Y-30461000D01*
X52431904Y-30270523D01*
X51898571Y-31413380D02*
X52431904Y-31413380D01*
X51593809Y-31222904D02*
X52165238Y-31032428D01*
X52165238Y-31527666D01*
X41510000Y-30251476D02*
X41471904Y-30175285D01*
X41471904Y-30061000D01*
X41510000Y-29946714D01*
X41586190Y-29870523D01*
X41662380Y-29832428D01*
X41814761Y-29794333D01*
X41929047Y-29794333D01*
X42081428Y-29832428D01*
X42157619Y-29870523D01*
X42233809Y-29946714D01*
X42271904Y-30061000D01*
X42271904Y-30137190D01*
X42233809Y-30251476D01*
X42195714Y-30289571D01*
X41929047Y-30289571D01*
X41929047Y-30137190D01*
X42271904Y-30632428D02*
X41471904Y-30632428D01*
X42271904Y-31089571D01*
X41471904Y-31089571D01*
X42271904Y-31470523D02*
X41471904Y-31470523D01*
X41471904Y-31661000D01*
X41510000Y-31775285D01*
X41586190Y-31851476D01*
X41662380Y-31889571D01*
X41814761Y-31927666D01*
X41929047Y-31927666D01*
X42081428Y-31889571D01*
X42157619Y-31851476D01*
X42233809Y-31775285D01*
X42271904Y-31661000D01*
X42271904Y-31470523D01*
X44050000Y-30251476D02*
X44011904Y-30175285D01*
X44011904Y-30061000D01*
X44050000Y-29946714D01*
X44126190Y-29870523D01*
X44202380Y-29832428D01*
X44354761Y-29794333D01*
X44469047Y-29794333D01*
X44621428Y-29832428D01*
X44697619Y-29870523D01*
X44773809Y-29946714D01*
X44811904Y-30061000D01*
X44811904Y-30137190D01*
X44773809Y-30251476D01*
X44735714Y-30289571D01*
X44469047Y-30289571D01*
X44469047Y-30137190D01*
X44811904Y-30632428D02*
X44011904Y-30632428D01*
X44811904Y-31089571D01*
X44011904Y-31089571D01*
X44811904Y-31470523D02*
X44011904Y-31470523D01*
X44011904Y-31661000D01*
X44050000Y-31775285D01*
X44126190Y-31851476D01*
X44202380Y-31889571D01*
X44354761Y-31927666D01*
X44469047Y-31927666D01*
X44621428Y-31889571D01*
X44697619Y-31851476D01*
X44773809Y-31775285D01*
X44811904Y-31661000D01*
X44811904Y-31470523D01*
X47351904Y-30270523D02*
X46551904Y-30270523D01*
X46551904Y-30461000D01*
X46590000Y-30575285D01*
X46666190Y-30651476D01*
X46742380Y-30689571D01*
X46894761Y-30727666D01*
X47009047Y-30727666D01*
X47161428Y-30689571D01*
X47237619Y-30651476D01*
X47313809Y-30575285D01*
X47351904Y-30461000D01*
X47351904Y-30270523D01*
X47351904Y-31489571D02*
X47351904Y-31032428D01*
X47351904Y-31261000D02*
X46551904Y-31261000D01*
X46666190Y-31184809D01*
X46742380Y-31108619D01*
X46780476Y-31032428D01*
X49891904Y-30270523D02*
X49091904Y-30270523D01*
X49091904Y-30461000D01*
X49130000Y-30575285D01*
X49206190Y-30651476D01*
X49282380Y-30689571D01*
X49434761Y-30727666D01*
X49549047Y-30727666D01*
X49701428Y-30689571D01*
X49777619Y-30651476D01*
X49853809Y-30575285D01*
X49891904Y-30461000D01*
X49891904Y-30270523D01*
X49091904Y-31222904D02*
X49091904Y-31299095D01*
X49130000Y-31375285D01*
X49168095Y-31413380D01*
X49244285Y-31451476D01*
X49396666Y-31489571D01*
X49587142Y-31489571D01*
X49739523Y-31451476D01*
X49815714Y-31413380D01*
X49853809Y-31375285D01*
X49891904Y-31299095D01*
X49891904Y-31222904D01*
X49853809Y-31146714D01*
X49815714Y-31108619D01*
X49739523Y-31070523D01*
X49587142Y-31032428D01*
X49396666Y-31032428D01*
X49244285Y-31070523D01*
X49168095Y-31108619D01*
X49130000Y-31146714D01*
X49091904Y-31222904D01*
X39731904Y-30270523D02*
X38931904Y-30270523D01*
X38931904Y-30461000D01*
X38970000Y-30575285D01*
X39046190Y-30651476D01*
X39122380Y-30689571D01*
X39274761Y-30727666D01*
X39389047Y-30727666D01*
X39541428Y-30689571D01*
X39617619Y-30651476D01*
X39693809Y-30575285D01*
X39731904Y-30461000D01*
X39731904Y-30270523D01*
X39008095Y-31032428D02*
X38970000Y-31070523D01*
X38931904Y-31146714D01*
X38931904Y-31337190D01*
X38970000Y-31413380D01*
X39008095Y-31451476D01*
X39084285Y-31489571D01*
X39160476Y-31489571D01*
X39274761Y-31451476D01*
X39731904Y-30994333D01*
X39731904Y-31489571D01*
%LPC*%
D13*
X54159992Y-91439836D03*
D14*
X52059992Y-88839836D03*
X63059992Y-99839836D03*
X54159992Y-96339836D03*
X52060000Y-99840000D03*
X63060000Y-88840000D03*
X60960000Y-96340000D03*
D13*
X60960000Y-91440000D03*
D15*
X57560000Y-95240000D03*
D16*
X59110000Y-95240000D03*
X56010000Y-95240000D03*
D17*
X59960000Y-95240000D03*
X55160000Y-95240000D03*
D18*
X57560000Y-97140000D03*
X57560000Y-93340000D03*
D13*
X35744992Y-91439836D03*
D14*
X33644992Y-88839836D03*
X44644992Y-99839836D03*
X35744992Y-96339836D03*
X33645000Y-99840000D03*
X44645000Y-88840000D03*
X42545000Y-96340000D03*
D13*
X42545000Y-91440000D03*
D15*
X39145000Y-95240000D03*
D16*
X40695000Y-95240000D03*
X37595000Y-95240000D03*
D17*
X41545000Y-95240000D03*
X36745000Y-95240000D03*
D18*
X39145000Y-97140000D03*
X39145000Y-93340000D03*
D13*
X17329992Y-91439836D03*
D14*
X15229992Y-88839836D03*
X26229992Y-99839836D03*
X17329992Y-96339836D03*
X15230000Y-99840000D03*
X26230000Y-88840000D03*
X24130000Y-96340000D03*
D13*
X24130000Y-91440000D03*
D15*
X20730000Y-95240000D03*
D16*
X22280000Y-95240000D03*
X19180000Y-95240000D03*
D17*
X23130000Y-95240000D03*
X18330000Y-95240000D03*
D18*
X20730000Y-97140000D03*
X20730000Y-93340000D03*
D13*
X54159992Y-74294836D03*
D14*
X52059992Y-71694836D03*
X63059992Y-82694836D03*
X54159992Y-79194836D03*
X52060000Y-82695000D03*
X63060000Y-71695000D03*
X60960000Y-79195000D03*
D13*
X60960000Y-74295000D03*
D15*
X57560000Y-78095000D03*
D16*
X59110000Y-78095000D03*
X56010000Y-78095000D03*
D17*
X59960000Y-78095000D03*
X55160000Y-78095000D03*
D18*
X57560000Y-79995000D03*
X57560000Y-76195000D03*
D13*
X35744992Y-74294836D03*
D14*
X33644992Y-71694836D03*
X44644992Y-82694836D03*
X35744992Y-79194836D03*
X33645000Y-82695000D03*
X44645000Y-71695000D03*
X42545000Y-79195000D03*
D13*
X42545000Y-74295000D03*
D15*
X39145000Y-78095000D03*
D16*
X40695000Y-78095000D03*
X37595000Y-78095000D03*
D17*
X41545000Y-78095000D03*
X36745000Y-78095000D03*
D18*
X39145000Y-79995000D03*
X39145000Y-76195000D03*
D13*
X17329992Y-74294836D03*
D14*
X15229992Y-71694836D03*
X26229992Y-82694836D03*
X17329992Y-79194836D03*
X15230000Y-82695000D03*
X26230000Y-71695000D03*
X24130000Y-79195000D03*
D13*
X24130000Y-74295000D03*
D15*
X20730000Y-78095000D03*
D16*
X22280000Y-78095000D03*
X19180000Y-78095000D03*
D17*
X23130000Y-78095000D03*
X18330000Y-78095000D03*
D18*
X20730000Y-79995000D03*
X20730000Y-76195000D03*
D13*
X54159992Y-57149836D03*
D14*
X52059992Y-54549836D03*
X63059992Y-65549836D03*
X54159992Y-62049836D03*
X52060000Y-65550000D03*
X63060000Y-54550000D03*
X60960000Y-62050000D03*
D13*
X60960000Y-57150000D03*
D15*
X57560000Y-60950000D03*
D16*
X59110000Y-60950000D03*
X56010000Y-60950000D03*
D17*
X59960000Y-60950000D03*
X55160000Y-60950000D03*
D18*
X57560000Y-62850000D03*
X57560000Y-59050000D03*
D13*
X35744992Y-57149836D03*
D14*
X33644992Y-54549836D03*
X44644992Y-65549836D03*
X35744992Y-62049836D03*
X33645000Y-65550000D03*
X44645000Y-54550000D03*
X42545000Y-62050000D03*
D13*
X42545000Y-57150000D03*
D15*
X39145000Y-60950000D03*
D16*
X40695000Y-60950000D03*
X37595000Y-60950000D03*
D17*
X41545000Y-60950000D03*
X36745000Y-60950000D03*
D18*
X39145000Y-62850000D03*
X39145000Y-59050000D03*
D13*
X17329992Y-57149836D03*
D14*
X15229992Y-54549836D03*
X26229992Y-65549836D03*
X17329992Y-62049836D03*
X15230000Y-65550000D03*
X26230000Y-54550000D03*
X24130000Y-62050000D03*
D13*
X24130000Y-57150000D03*
D15*
X20730000Y-60950000D03*
D16*
X22280000Y-60950000D03*
X19180000Y-60950000D03*
D17*
X23130000Y-60950000D03*
X18330000Y-60950000D03*
D18*
X20730000Y-62850000D03*
X20730000Y-59050000D03*
D13*
X54159992Y-40004836D03*
D14*
X52059992Y-37404836D03*
X63059992Y-48404836D03*
X54159992Y-44904836D03*
X52060000Y-48405000D03*
X63060000Y-37405000D03*
X60960000Y-44905000D03*
D13*
X60960000Y-40005000D03*
D15*
X57560000Y-43805000D03*
D16*
X59110000Y-43805000D03*
X56010000Y-43805000D03*
D17*
X59960000Y-43805000D03*
X55160000Y-43805000D03*
D18*
X57560000Y-45705000D03*
X57560000Y-41905000D03*
D13*
X35744992Y-40004836D03*
D14*
X33644992Y-37404836D03*
X44644992Y-48404836D03*
X35744992Y-44904836D03*
X33645000Y-48405000D03*
X44645000Y-37405000D03*
X42545000Y-44905000D03*
D13*
X42545000Y-40005000D03*
D15*
X39145000Y-43805000D03*
D16*
X40695000Y-43805000D03*
X37595000Y-43805000D03*
D17*
X41545000Y-43805000D03*
X36745000Y-43805000D03*
D18*
X39145000Y-45705000D03*
X39145000Y-41905000D03*
D13*
X17329992Y-40004836D03*
D14*
X15229992Y-37404836D03*
X26229992Y-48404836D03*
X17329992Y-44904836D03*
X15230000Y-48405000D03*
X26230000Y-37405000D03*
X24130000Y-44905000D03*
D13*
X24130000Y-40005000D03*
D15*
X20730000Y-43805000D03*
D16*
X22280000Y-43805000D03*
X19180000Y-43805000D03*
D17*
X23130000Y-43805000D03*
X18330000Y-43805000D03*
D18*
X20730000Y-45705000D03*
X20730000Y-41905000D03*
D13*
X54159992Y-22859836D03*
D14*
X52059992Y-20259836D03*
X63059992Y-31259836D03*
X54159992Y-27759836D03*
X52060000Y-31260000D03*
X63060000Y-20260000D03*
X60960000Y-27760000D03*
D13*
X60960000Y-22860000D03*
D15*
X57560000Y-26660000D03*
D16*
X59110000Y-26660000D03*
X56010000Y-26660000D03*
D17*
X59960000Y-26660000D03*
X55160000Y-26660000D03*
D18*
X57560000Y-28560000D03*
X57560000Y-24760000D03*
D13*
X35744992Y-22859836D03*
D14*
X33644992Y-20259836D03*
X44644992Y-31259836D03*
X35744992Y-27759836D03*
X33645000Y-31260000D03*
X44645000Y-20260000D03*
X42545000Y-27760000D03*
D13*
X42545000Y-22860000D03*
D15*
X39145000Y-26660000D03*
D16*
X40695000Y-26660000D03*
X37595000Y-26660000D03*
D17*
X41545000Y-26660000D03*
X36745000Y-26660000D03*
D18*
X39145000Y-28560000D03*
X39145000Y-24760000D03*
D13*
X17329992Y-22859836D03*
D14*
X15229992Y-20259836D03*
X26229992Y-31259836D03*
X17329992Y-27759836D03*
X15230000Y-31260000D03*
X26230000Y-20260000D03*
X24130000Y-27760000D03*
D13*
X24130000Y-22860000D03*
D15*
X20730000Y-26660000D03*
D16*
X22280000Y-26660000D03*
X19180000Y-26660000D03*
D17*
X23130000Y-26660000D03*
X18330000Y-26660000D03*
D18*
X20730000Y-28560000D03*
X20730000Y-24760000D03*
D19*
X42545000Y-13970000D03*
D13*
X34925000Y-13970000D03*
D19*
X45720000Y-13970000D03*
D13*
X53340000Y-13970000D03*
X27940000Y-20320000D03*
X17780000Y-20320000D03*
X27940000Y-22860000D03*
X27940000Y-25400000D03*
X27940000Y-27940000D03*
X27940000Y-30480000D03*
X17780000Y-30480000D03*
D20*
X26405000Y-17975000D03*
X24905000Y-13775000D03*
D21*
X16105000Y-15875000D03*
X23105000Y-15875000D03*
D20*
X17905000Y-13775000D03*
X20905000Y-13775000D03*
D22*
X56134000Y-85699600D03*
X59436000Y-85699600D03*
D23*
X61595000Y-85725000D03*
D13*
X53975000Y-85725000D03*
D22*
X37719000Y-85699600D03*
X41021000Y-85699600D03*
D23*
X43180000Y-85725000D03*
D13*
X35560000Y-85725000D03*
D22*
X18669000Y-85699600D03*
X21971000Y-85699600D03*
D23*
X24130000Y-85725000D03*
D13*
X16510000Y-85725000D03*
D22*
X56134000Y-68554600D03*
X59436000Y-68554600D03*
D23*
X61595000Y-68580000D03*
D13*
X53975000Y-68580000D03*
D22*
X37719000Y-68554600D03*
X41021000Y-68554600D03*
D23*
X43180000Y-68580000D03*
D13*
X35560000Y-68580000D03*
D22*
X19304000Y-68554600D03*
X22606000Y-68554600D03*
D23*
X24765000Y-68580000D03*
D13*
X17145000Y-68580000D03*
D24*
X48869600Y-61341000D03*
X48869600Y-58039000D03*
D23*
X48895000Y-55880000D03*
D13*
X48895000Y-63500000D03*
D22*
X37719000Y-51409600D03*
X41021000Y-51409600D03*
D23*
X43180000Y-51435000D03*
D13*
X35560000Y-51435000D03*
D22*
X19304000Y-51409600D03*
X22606000Y-51409600D03*
D23*
X24765000Y-51435000D03*
D13*
X17145000Y-51435000D03*
D22*
X56134000Y-51409600D03*
X59436000Y-51409600D03*
D23*
X61595000Y-51435000D03*
D13*
X53975000Y-51435000D03*
D24*
X48234600Y-44196000D03*
X48234600Y-40894000D03*
D23*
X48260000Y-38735000D03*
D13*
X48260000Y-46355000D03*
D24*
X29819600Y-44196000D03*
X29819600Y-40894000D03*
D23*
X29845000Y-38735000D03*
D13*
X29845000Y-46355000D03*
D24*
X48234600Y-27686000D03*
X48234600Y-24384000D03*
D23*
X48260000Y-22225000D03*
D13*
X48260000Y-29845000D03*
D24*
X29819600Y-27686000D03*
X29819600Y-24384000D03*
D23*
X29845000Y-22225000D03*
D13*
X29845000Y-29845000D03*
D22*
X19304000Y-34264600D03*
X22606000Y-34264600D03*
D23*
X24765000Y-34290000D03*
D13*
X17145000Y-34290000D03*
D25*
X36830000Y-17780000D03*
X64770000Y-33020000D03*
X39370000Y-17780000D03*
X41910000Y-17780000D03*
X44450000Y-17780000D03*
X46990000Y-17780000D03*
X49530000Y-17780000D03*
X52070000Y-17780000D03*
X54610000Y-17780000D03*
X57150000Y-17780000D03*
X59690000Y-17780000D03*
X62230000Y-17780000D03*
X64770000Y-17780000D03*
X62230000Y-33020000D03*
X59690000Y-33020000D03*
X57150000Y-33020000D03*
X54610000Y-33020000D03*
X52070000Y-33020000D03*
X49530000Y-33020000D03*
X46990000Y-33020000D03*
X44450000Y-33020000D03*
X41910000Y-33020000D03*
X39370000Y-33020000D03*
D26*
X36830000Y-33020000D03*
M02*
