G04 #@! TF.GenerationSoftware,KiCad,Pcbnew,5.1.0*
G04 #@! TF.CreationDate,2019-04-04T12:50:07+09:00*
G04 #@! TF.ProjectId,pg1425-namecard-ver1,70673134-3235-42d6-9e61-6d6563617264,rev?*
G04 #@! TF.SameCoordinates,Original*
G04 #@! TF.FileFunction,Legend,Top*
G04 #@! TF.FilePolarity,Positive*
%FSLAX46Y46*%
G04 Gerber Fmt 4.6, Leading zero omitted, Abs format (unit mm)*
G04 Created by KiCad (PCBNEW 5.1.0) date 2019-04-04 12:50:07*
%MOMM*%
%LPD*%
G04 APERTURE LIST*
%ADD10C,0.150000*%
%ADD11C,0.120000*%
%ADD12C,0.381000*%
%ADD13C,1.702000*%
%ADD14C,1.402000*%
%ADD15O,5.202000X4.202000*%
%ADD16O,2.102000X4.202000*%
%ADD17O,0.402000X4.202000*%
%ADD18O,5.202000X0.402000*%
%ADD19O,1.702000X1.702000*%
%ADD20O,2.402000X1.602000*%
%ADD21C,1.302000*%
%ADD22R,1.102000X1.402000*%
%ADD23R,1.702000X1.702000*%
%ADD24R,1.402000X1.102000*%
%ADD25C,1.854600*%
%ADD26R,1.854600X1.854600*%
G04 APERTURE END LIST*
D10*
X50160000Y-101340000D02*
X50160000Y-87340000D01*
X64960000Y-101340000D02*
X50160000Y-101340000D01*
X64960000Y-87340000D02*
X64960000Y-101340000D01*
X50160000Y-87340000D02*
X64960000Y-87340000D01*
X31745000Y-101340000D02*
X31745000Y-87340000D01*
X46545000Y-101340000D02*
X31745000Y-101340000D01*
X46545000Y-87340000D02*
X46545000Y-101340000D01*
X31745000Y-87340000D02*
X46545000Y-87340000D01*
X13330000Y-101340000D02*
X13330000Y-87340000D01*
X28130000Y-101340000D02*
X13330000Y-101340000D01*
X28130000Y-87340000D02*
X28130000Y-101340000D01*
X13330000Y-87340000D02*
X28130000Y-87340000D01*
X50160000Y-84195000D02*
X50160000Y-70195000D01*
X64960000Y-84195000D02*
X50160000Y-84195000D01*
X64960000Y-70195000D02*
X64960000Y-84195000D01*
X50160000Y-70195000D02*
X64960000Y-70195000D01*
X31745000Y-84195000D02*
X31745000Y-70195000D01*
X46545000Y-84195000D02*
X31745000Y-84195000D01*
X46545000Y-70195000D02*
X46545000Y-84195000D01*
X31745000Y-70195000D02*
X46545000Y-70195000D01*
X13330000Y-84195000D02*
X13330000Y-70195000D01*
X28130000Y-84195000D02*
X13330000Y-84195000D01*
X28130000Y-70195000D02*
X28130000Y-84195000D01*
X13330000Y-70195000D02*
X28130000Y-70195000D01*
X50160000Y-67050000D02*
X50160000Y-53050000D01*
X64960000Y-67050000D02*
X50160000Y-67050000D01*
X64960000Y-53050000D02*
X64960000Y-67050000D01*
X50160000Y-53050000D02*
X64960000Y-53050000D01*
X31745000Y-67050000D02*
X31745000Y-53050000D01*
X46545000Y-67050000D02*
X31745000Y-67050000D01*
X46545000Y-53050000D02*
X46545000Y-67050000D01*
X31745000Y-53050000D02*
X46545000Y-53050000D01*
X13330000Y-67050000D02*
X13330000Y-53050000D01*
X28130000Y-67050000D02*
X13330000Y-67050000D01*
X28130000Y-53050000D02*
X28130000Y-67050000D01*
X13330000Y-53050000D02*
X28130000Y-53050000D01*
X50160000Y-49905000D02*
X50160000Y-35905000D01*
X64960000Y-49905000D02*
X50160000Y-49905000D01*
X64960000Y-35905000D02*
X64960000Y-49905000D01*
X50160000Y-35905000D02*
X64960000Y-35905000D01*
X31745000Y-49905000D02*
X31745000Y-35905000D01*
X46545000Y-49905000D02*
X31745000Y-49905000D01*
X46545000Y-35905000D02*
X46545000Y-49905000D01*
X31745000Y-35905000D02*
X46545000Y-35905000D01*
X13330000Y-49905000D02*
X13330000Y-35905000D01*
X28130000Y-49905000D02*
X13330000Y-49905000D01*
X28130000Y-35905000D02*
X28130000Y-49905000D01*
X13330000Y-35905000D02*
X28130000Y-35905000D01*
X50160000Y-32760000D02*
X50160000Y-18760000D01*
X64960000Y-32760000D02*
X50160000Y-32760000D01*
X64960000Y-18760000D02*
X64960000Y-32760000D01*
X50160000Y-18760000D02*
X64960000Y-18760000D01*
X31745000Y-32760000D02*
X31745000Y-18760000D01*
X46545000Y-32760000D02*
X31745000Y-32760000D01*
X46545000Y-18760000D02*
X46545000Y-32760000D01*
X31745000Y-18760000D02*
X46545000Y-18760000D01*
X13330000Y-32760000D02*
X13330000Y-18760000D01*
X28130000Y-32760000D02*
X13330000Y-32760000D01*
X28130000Y-18760000D02*
X28130000Y-32760000D01*
X13330000Y-18760000D02*
X28130000Y-18760000D01*
D11*
X42005000Y-15340000D02*
X42005000Y-15010000D01*
X35465000Y-15340000D02*
X42005000Y-15340000D01*
X35465000Y-15010000D02*
X35465000Y-15340000D01*
X42005000Y-12600000D02*
X42005000Y-12930000D01*
X35465000Y-12600000D02*
X42005000Y-12600000D01*
X35465000Y-12930000D02*
X35465000Y-12600000D01*
X46260000Y-12600000D02*
X46260000Y-12930000D01*
X52800000Y-12600000D02*
X46260000Y-12600000D01*
X52800000Y-12930000D02*
X52800000Y-12600000D01*
X46260000Y-15340000D02*
X46260000Y-15010000D01*
X52800000Y-15340000D02*
X46260000Y-15340000D01*
X52800000Y-15010000D02*
X52800000Y-15340000D01*
D10*
X29210000Y-31750000D02*
X16510000Y-31750000D01*
X29210000Y-19050000D02*
X29210000Y-31750000D01*
X16510000Y-19050000D02*
X29210000Y-19050000D01*
X16510000Y-31750000D02*
X16510000Y-19050000D01*
X14605000Y-12875000D02*
X26705000Y-12875000D01*
X14605000Y-18875000D02*
X14605000Y-12875000D01*
X26705000Y-18875000D02*
X14605000Y-18875000D01*
X26705000Y-12875000D02*
X26705000Y-18875000D01*
X12605000Y-13375000D02*
X14605000Y-13375000D01*
X12605000Y-18375000D02*
X14605000Y-18375000D01*
X12605000Y-13375000D02*
X12605000Y-18375000D01*
D11*
X59185000Y-86845000D02*
X59185000Y-84605000D01*
X55665000Y-86845000D02*
X59905000Y-86845000D01*
X55665000Y-84605000D02*
X55665000Y-86845000D01*
X59305000Y-86845000D02*
X59305000Y-84605000D01*
X59065000Y-86845000D02*
X59065000Y-84605000D01*
X59905000Y-84605000D02*
X55665000Y-84605000D01*
X59905000Y-86845000D02*
X59905000Y-84605000D01*
X40770000Y-86845000D02*
X40770000Y-84605000D01*
X37250000Y-86845000D02*
X41490000Y-86845000D01*
X37250000Y-84605000D02*
X37250000Y-86845000D01*
X40890000Y-86845000D02*
X40890000Y-84605000D01*
X40650000Y-86845000D02*
X40650000Y-84605000D01*
X41490000Y-84605000D02*
X37250000Y-84605000D01*
X41490000Y-86845000D02*
X41490000Y-84605000D01*
X21720000Y-86845000D02*
X21720000Y-84605000D01*
X18200000Y-86845000D02*
X22440000Y-86845000D01*
X18200000Y-84605000D02*
X18200000Y-86845000D01*
X21840000Y-86845000D02*
X21840000Y-84605000D01*
X21600000Y-86845000D02*
X21600000Y-84605000D01*
X22440000Y-84605000D02*
X18200000Y-84605000D01*
X22440000Y-86845000D02*
X22440000Y-84605000D01*
X59185000Y-69700000D02*
X59185000Y-67460000D01*
X55665000Y-69700000D02*
X59905000Y-69700000D01*
X55665000Y-67460000D02*
X55665000Y-69700000D01*
X59305000Y-69700000D02*
X59305000Y-67460000D01*
X59065000Y-69700000D02*
X59065000Y-67460000D01*
X59905000Y-67460000D02*
X55665000Y-67460000D01*
X59905000Y-69700000D02*
X59905000Y-67460000D01*
X40770000Y-69700000D02*
X40770000Y-67460000D01*
X37250000Y-69700000D02*
X41490000Y-69700000D01*
X37250000Y-67460000D02*
X37250000Y-69700000D01*
X40890000Y-69700000D02*
X40890000Y-67460000D01*
X40650000Y-69700000D02*
X40650000Y-67460000D01*
X41490000Y-67460000D02*
X37250000Y-67460000D01*
X41490000Y-69700000D02*
X41490000Y-67460000D01*
X22355000Y-69700000D02*
X22355000Y-67460000D01*
X18835000Y-69700000D02*
X23075000Y-69700000D01*
X18835000Y-67460000D02*
X18835000Y-69700000D01*
X22475000Y-69700000D02*
X22475000Y-67460000D01*
X22235000Y-69700000D02*
X22235000Y-67460000D01*
X23075000Y-67460000D02*
X18835000Y-67460000D01*
X23075000Y-69700000D02*
X23075000Y-67460000D01*
X50015000Y-58290000D02*
X47775000Y-58290000D01*
X50015000Y-61810000D02*
X50015000Y-57570000D01*
X47775000Y-61810000D02*
X50015000Y-61810000D01*
X50015000Y-58170000D02*
X47775000Y-58170000D01*
X50015000Y-58410000D02*
X47775000Y-58410000D01*
X47775000Y-57570000D02*
X47775000Y-61810000D01*
X50015000Y-57570000D02*
X47775000Y-57570000D01*
X40770000Y-52555000D02*
X40770000Y-50315000D01*
X37250000Y-52555000D02*
X41490000Y-52555000D01*
X37250000Y-50315000D02*
X37250000Y-52555000D01*
X40890000Y-52555000D02*
X40890000Y-50315000D01*
X40650000Y-52555000D02*
X40650000Y-50315000D01*
X41490000Y-50315000D02*
X37250000Y-50315000D01*
X41490000Y-52555000D02*
X41490000Y-50315000D01*
X22355000Y-52555000D02*
X22355000Y-50315000D01*
X18835000Y-52555000D02*
X23075000Y-52555000D01*
X18835000Y-50315000D02*
X18835000Y-52555000D01*
X22475000Y-52555000D02*
X22475000Y-50315000D01*
X22235000Y-52555000D02*
X22235000Y-50315000D01*
X23075000Y-50315000D02*
X18835000Y-50315000D01*
X23075000Y-52555000D02*
X23075000Y-50315000D01*
X59185000Y-52555000D02*
X59185000Y-50315000D01*
X55665000Y-52555000D02*
X59905000Y-52555000D01*
X55665000Y-50315000D02*
X55665000Y-52555000D01*
X59305000Y-52555000D02*
X59305000Y-50315000D01*
X59065000Y-52555000D02*
X59065000Y-50315000D01*
X59905000Y-50315000D02*
X55665000Y-50315000D01*
X59905000Y-52555000D02*
X59905000Y-50315000D01*
X49380000Y-41145000D02*
X47140000Y-41145000D01*
X49380000Y-44665000D02*
X49380000Y-40425000D01*
X47140000Y-44665000D02*
X49380000Y-44665000D01*
X49380000Y-41025000D02*
X47140000Y-41025000D01*
X49380000Y-41265000D02*
X47140000Y-41265000D01*
X47140000Y-40425000D02*
X47140000Y-44665000D01*
X49380000Y-40425000D02*
X47140000Y-40425000D01*
X30965000Y-41145000D02*
X28725000Y-41145000D01*
X30965000Y-44665000D02*
X30965000Y-40425000D01*
X28725000Y-44665000D02*
X30965000Y-44665000D01*
X30965000Y-41025000D02*
X28725000Y-41025000D01*
X30965000Y-41265000D02*
X28725000Y-41265000D01*
X28725000Y-40425000D02*
X28725000Y-44665000D01*
X30965000Y-40425000D02*
X28725000Y-40425000D01*
X49380000Y-24635000D02*
X47140000Y-24635000D01*
X49380000Y-28155000D02*
X49380000Y-23915000D01*
X47140000Y-28155000D02*
X49380000Y-28155000D01*
X49380000Y-24515000D02*
X47140000Y-24515000D01*
X49380000Y-24755000D02*
X47140000Y-24755000D01*
X47140000Y-23915000D02*
X47140000Y-28155000D01*
X49380000Y-23915000D02*
X47140000Y-23915000D01*
X30965000Y-24635000D02*
X28725000Y-24635000D01*
X30965000Y-28155000D02*
X30965000Y-23915000D01*
X28725000Y-28155000D02*
X30965000Y-28155000D01*
X30965000Y-24515000D02*
X28725000Y-24515000D01*
X30965000Y-24755000D02*
X28725000Y-24755000D01*
X28725000Y-23915000D02*
X28725000Y-28155000D01*
X30965000Y-23915000D02*
X28725000Y-23915000D01*
X22355000Y-35410000D02*
X22355000Y-33170000D01*
X18835000Y-35410000D02*
X23075000Y-35410000D01*
X18835000Y-33170000D02*
X18835000Y-35410000D01*
X22475000Y-35410000D02*
X22475000Y-33170000D01*
X22235000Y-35410000D02*
X22235000Y-33170000D01*
X23075000Y-33170000D02*
X18835000Y-33170000D01*
X23075000Y-35410000D02*
X23075000Y-33170000D01*
D12*
X35560000Y-31750000D02*
X35560000Y-34290000D01*
X33020000Y-34290000D02*
X35560000Y-34290000D01*
X33020000Y-16510000D02*
X33020000Y-34290000D01*
X35560000Y-16510000D02*
X33020000Y-16510000D01*
D10*
G36*
X42039360Y-20468432D02*
G01*
X42239360Y-20468432D01*
X42239360Y-20568432D01*
X42039360Y-20568432D01*
X42039360Y-20468432D01*
G37*
X42039360Y-20468432D02*
X42239360Y-20468432D01*
X42239360Y-20568432D01*
X42039360Y-20568432D01*
X42039360Y-20468432D01*
G36*
X41439360Y-20868432D02*
G01*
X42239360Y-20868432D01*
X42239360Y-20968432D01*
X41439360Y-20968432D01*
X41439360Y-20868432D01*
G37*
X41439360Y-20868432D02*
X42239360Y-20868432D01*
X42239360Y-20968432D01*
X41439360Y-20968432D01*
X41439360Y-20868432D01*
G36*
X41439360Y-20468432D02*
G01*
X41539360Y-20468432D01*
X41539360Y-20968432D01*
X41439360Y-20968432D01*
X41439360Y-20468432D01*
G37*
X41439360Y-20468432D02*
X41539360Y-20468432D01*
X41539360Y-20968432D01*
X41439360Y-20968432D01*
X41439360Y-20468432D01*
G36*
X41839360Y-20668432D02*
G01*
X41939360Y-20668432D01*
X41939360Y-20768432D01*
X41839360Y-20768432D01*
X41839360Y-20668432D01*
G37*
X41839360Y-20668432D02*
X41939360Y-20668432D01*
X41939360Y-20768432D01*
X41839360Y-20768432D01*
X41839360Y-20668432D01*
G36*
X41439360Y-20468432D02*
G01*
X41739360Y-20468432D01*
X41739360Y-20568432D01*
X41439360Y-20568432D01*
X41439360Y-20468432D01*
G37*
X41439360Y-20468432D02*
X41739360Y-20468432D01*
X41739360Y-20568432D01*
X41439360Y-20568432D01*
X41439360Y-20468432D01*
D12*
X38100000Y-31750000D02*
X38100000Y-34290000D01*
X35560000Y-31750000D02*
X38100000Y-31750000D01*
X66040000Y-16510000D02*
X35560000Y-16510000D01*
X66040000Y-34290000D02*
X66040000Y-16510000D01*
X35560000Y-34290000D02*
X66040000Y-34290000D01*
D10*
X38568333Y-12052380D02*
X38235000Y-11576190D01*
X37996904Y-12052380D02*
X37996904Y-11052380D01*
X38377857Y-11052380D01*
X38473095Y-11100000D01*
X38520714Y-11147619D01*
X38568333Y-11242857D01*
X38568333Y-11385714D01*
X38520714Y-11480952D01*
X38473095Y-11528571D01*
X38377857Y-11576190D01*
X37996904Y-11576190D01*
X38949285Y-11147619D02*
X38996904Y-11100000D01*
X39092142Y-11052380D01*
X39330238Y-11052380D01*
X39425476Y-11100000D01*
X39473095Y-11147619D01*
X39520714Y-11242857D01*
X39520714Y-11338095D01*
X39473095Y-11480952D01*
X38901666Y-12052380D01*
X39520714Y-12052380D01*
X49363333Y-16792380D02*
X49030000Y-16316190D01*
X48791904Y-16792380D02*
X48791904Y-15792380D01*
X49172857Y-15792380D01*
X49268095Y-15840000D01*
X49315714Y-15887619D01*
X49363333Y-15982857D01*
X49363333Y-16125714D01*
X49315714Y-16220952D01*
X49268095Y-16268571D01*
X49172857Y-16316190D01*
X48791904Y-16316190D01*
X50315714Y-16792380D02*
X49744285Y-16792380D01*
X50030000Y-16792380D02*
X50030000Y-15792380D01*
X49934761Y-15935238D01*
X49839523Y-16030476D01*
X49744285Y-16078095D01*
X5012380Y-29113333D02*
X5726666Y-29113333D01*
X5869523Y-29160952D01*
X5964761Y-29256190D01*
X6012380Y-29399047D01*
X6012380Y-29494285D01*
X5107619Y-28684761D02*
X5060000Y-28637142D01*
X5012380Y-28541904D01*
X5012380Y-28303809D01*
X5060000Y-28208571D01*
X5107619Y-28160952D01*
X5202857Y-28113333D01*
X5298095Y-28113333D01*
X5440952Y-28160952D01*
X6012380Y-28732380D01*
X6012380Y-28113333D01*
X56570714Y-88177380D02*
X56570714Y-87177380D01*
X56808809Y-87177380D01*
X56951666Y-87225000D01*
X57046904Y-87320238D01*
X57094523Y-87415476D01*
X57142142Y-87605952D01*
X57142142Y-87748809D01*
X57094523Y-87939285D01*
X57046904Y-88034523D01*
X56951666Y-88129761D01*
X56808809Y-88177380D01*
X56570714Y-88177380D01*
X58094523Y-88177380D02*
X57523095Y-88177380D01*
X57808809Y-88177380D02*
X57808809Y-87177380D01*
X57713571Y-87320238D01*
X57618333Y-87415476D01*
X57523095Y-87463095D01*
X58999285Y-87177380D02*
X58523095Y-87177380D01*
X58475476Y-87653571D01*
X58523095Y-87605952D01*
X58618333Y-87558333D01*
X58856428Y-87558333D01*
X58951666Y-87605952D01*
X58999285Y-87653571D01*
X59046904Y-87748809D01*
X59046904Y-87986904D01*
X58999285Y-88082142D01*
X58951666Y-88129761D01*
X58856428Y-88177380D01*
X58618333Y-88177380D01*
X58523095Y-88129761D01*
X58475476Y-88082142D01*
X61333095Y-87977380D02*
X61333095Y-86977380D01*
X61904523Y-87977380D02*
X61475952Y-87405952D01*
X61904523Y-86977380D02*
X61333095Y-87548809D01*
X38155714Y-88177380D02*
X38155714Y-87177380D01*
X38393809Y-87177380D01*
X38536666Y-87225000D01*
X38631904Y-87320238D01*
X38679523Y-87415476D01*
X38727142Y-87605952D01*
X38727142Y-87748809D01*
X38679523Y-87939285D01*
X38631904Y-88034523D01*
X38536666Y-88129761D01*
X38393809Y-88177380D01*
X38155714Y-88177380D01*
X39679523Y-88177380D02*
X39108095Y-88177380D01*
X39393809Y-88177380D02*
X39393809Y-87177380D01*
X39298571Y-87320238D01*
X39203333Y-87415476D01*
X39108095Y-87463095D01*
X40536666Y-87510714D02*
X40536666Y-88177380D01*
X40298571Y-87129761D02*
X40060476Y-87844047D01*
X40679523Y-87844047D01*
X42918095Y-87977380D02*
X42918095Y-86977380D01*
X43489523Y-87977380D02*
X43060952Y-87405952D01*
X43489523Y-86977380D02*
X42918095Y-87548809D01*
X19105714Y-88177380D02*
X19105714Y-87177380D01*
X19343809Y-87177380D01*
X19486666Y-87225000D01*
X19581904Y-87320238D01*
X19629523Y-87415476D01*
X19677142Y-87605952D01*
X19677142Y-87748809D01*
X19629523Y-87939285D01*
X19581904Y-88034523D01*
X19486666Y-88129761D01*
X19343809Y-88177380D01*
X19105714Y-88177380D01*
X20629523Y-88177380D02*
X20058095Y-88177380D01*
X20343809Y-88177380D02*
X20343809Y-87177380D01*
X20248571Y-87320238D01*
X20153333Y-87415476D01*
X20058095Y-87463095D01*
X20962857Y-87177380D02*
X21581904Y-87177380D01*
X21248571Y-87558333D01*
X21391428Y-87558333D01*
X21486666Y-87605952D01*
X21534285Y-87653571D01*
X21581904Y-87748809D01*
X21581904Y-87986904D01*
X21534285Y-88082142D01*
X21486666Y-88129761D01*
X21391428Y-88177380D01*
X21105714Y-88177380D01*
X21010476Y-88129761D01*
X20962857Y-88082142D01*
X23868095Y-87977380D02*
X23868095Y-86977380D01*
X24439523Y-87977380D02*
X24010952Y-87405952D01*
X24439523Y-86977380D02*
X23868095Y-87548809D01*
X56570714Y-71032380D02*
X56570714Y-70032380D01*
X56808809Y-70032380D01*
X56951666Y-70080000D01*
X57046904Y-70175238D01*
X57094523Y-70270476D01*
X57142142Y-70460952D01*
X57142142Y-70603809D01*
X57094523Y-70794285D01*
X57046904Y-70889523D01*
X56951666Y-70984761D01*
X56808809Y-71032380D01*
X56570714Y-71032380D01*
X58094523Y-71032380D02*
X57523095Y-71032380D01*
X57808809Y-71032380D02*
X57808809Y-70032380D01*
X57713571Y-70175238D01*
X57618333Y-70270476D01*
X57523095Y-70318095D01*
X58475476Y-70127619D02*
X58523095Y-70080000D01*
X58618333Y-70032380D01*
X58856428Y-70032380D01*
X58951666Y-70080000D01*
X58999285Y-70127619D01*
X59046904Y-70222857D01*
X59046904Y-70318095D01*
X58999285Y-70460952D01*
X58427857Y-71032380D01*
X59046904Y-71032380D01*
X61333095Y-70832380D02*
X61333095Y-69832380D01*
X61904523Y-70832380D02*
X61475952Y-70260952D01*
X61904523Y-69832380D02*
X61333095Y-70403809D01*
X38155714Y-71032380D02*
X38155714Y-70032380D01*
X38393809Y-70032380D01*
X38536666Y-70080000D01*
X38631904Y-70175238D01*
X38679523Y-70270476D01*
X38727142Y-70460952D01*
X38727142Y-70603809D01*
X38679523Y-70794285D01*
X38631904Y-70889523D01*
X38536666Y-70984761D01*
X38393809Y-71032380D01*
X38155714Y-71032380D01*
X39679523Y-71032380D02*
X39108095Y-71032380D01*
X39393809Y-71032380D02*
X39393809Y-70032380D01*
X39298571Y-70175238D01*
X39203333Y-70270476D01*
X39108095Y-70318095D01*
X40631904Y-71032380D02*
X40060476Y-71032380D01*
X40346190Y-71032380D02*
X40346190Y-70032380D01*
X40250952Y-70175238D01*
X40155714Y-70270476D01*
X40060476Y-70318095D01*
X42918095Y-70832380D02*
X42918095Y-69832380D01*
X43489523Y-70832380D02*
X43060952Y-70260952D01*
X43489523Y-69832380D02*
X42918095Y-70403809D01*
X19740714Y-71032380D02*
X19740714Y-70032380D01*
X19978809Y-70032380D01*
X20121666Y-70080000D01*
X20216904Y-70175238D01*
X20264523Y-70270476D01*
X20312142Y-70460952D01*
X20312142Y-70603809D01*
X20264523Y-70794285D01*
X20216904Y-70889523D01*
X20121666Y-70984761D01*
X19978809Y-71032380D01*
X19740714Y-71032380D01*
X21264523Y-71032380D02*
X20693095Y-71032380D01*
X20978809Y-71032380D02*
X20978809Y-70032380D01*
X20883571Y-70175238D01*
X20788333Y-70270476D01*
X20693095Y-70318095D01*
X21883571Y-70032380D02*
X21978809Y-70032380D01*
X22074047Y-70080000D01*
X22121666Y-70127619D01*
X22169285Y-70222857D01*
X22216904Y-70413333D01*
X22216904Y-70651428D01*
X22169285Y-70841904D01*
X22121666Y-70937142D01*
X22074047Y-70984761D01*
X21978809Y-71032380D01*
X21883571Y-71032380D01*
X21788333Y-70984761D01*
X21740714Y-70937142D01*
X21693095Y-70841904D01*
X21645476Y-70651428D01*
X21645476Y-70413333D01*
X21693095Y-70222857D01*
X21740714Y-70127619D01*
X21788333Y-70080000D01*
X21883571Y-70032380D01*
X24503095Y-70832380D02*
X24503095Y-69832380D01*
X25074523Y-70832380D02*
X24645952Y-70260952D01*
X25074523Y-69832380D02*
X24503095Y-70403809D01*
X51347380Y-60428095D02*
X50347380Y-60428095D01*
X50347380Y-60190000D01*
X50395000Y-60047142D01*
X50490238Y-59951904D01*
X50585476Y-59904285D01*
X50775952Y-59856666D01*
X50918809Y-59856666D01*
X51109285Y-59904285D01*
X51204523Y-59951904D01*
X51299761Y-60047142D01*
X51347380Y-60190000D01*
X51347380Y-60428095D01*
X51347380Y-59380476D02*
X51347380Y-59190000D01*
X51299761Y-59094761D01*
X51252142Y-59047142D01*
X51109285Y-58951904D01*
X50918809Y-58904285D01*
X50537857Y-58904285D01*
X50442619Y-58951904D01*
X50395000Y-58999523D01*
X50347380Y-59094761D01*
X50347380Y-59285238D01*
X50395000Y-59380476D01*
X50442619Y-59428095D01*
X50537857Y-59475714D01*
X50775952Y-59475714D01*
X50871190Y-59428095D01*
X50918809Y-59380476D01*
X50966428Y-59285238D01*
X50966428Y-59094761D01*
X50918809Y-58999523D01*
X50871190Y-58951904D01*
X50775952Y-58904285D01*
X51147380Y-56141904D02*
X50147380Y-56141904D01*
X51147380Y-55570476D02*
X50575952Y-55999047D01*
X50147380Y-55570476D02*
X50718809Y-56141904D01*
X38631904Y-53887380D02*
X38631904Y-52887380D01*
X38870000Y-52887380D01*
X39012857Y-52935000D01*
X39108095Y-53030238D01*
X39155714Y-53125476D01*
X39203333Y-53315952D01*
X39203333Y-53458809D01*
X39155714Y-53649285D01*
X39108095Y-53744523D01*
X39012857Y-53839761D01*
X38870000Y-53887380D01*
X38631904Y-53887380D01*
X39774761Y-53315952D02*
X39679523Y-53268333D01*
X39631904Y-53220714D01*
X39584285Y-53125476D01*
X39584285Y-53077857D01*
X39631904Y-52982619D01*
X39679523Y-52935000D01*
X39774761Y-52887380D01*
X39965238Y-52887380D01*
X40060476Y-52935000D01*
X40108095Y-52982619D01*
X40155714Y-53077857D01*
X40155714Y-53125476D01*
X40108095Y-53220714D01*
X40060476Y-53268333D01*
X39965238Y-53315952D01*
X39774761Y-53315952D01*
X39679523Y-53363571D01*
X39631904Y-53411190D01*
X39584285Y-53506428D01*
X39584285Y-53696904D01*
X39631904Y-53792142D01*
X39679523Y-53839761D01*
X39774761Y-53887380D01*
X39965238Y-53887380D01*
X40060476Y-53839761D01*
X40108095Y-53792142D01*
X40155714Y-53696904D01*
X40155714Y-53506428D01*
X40108095Y-53411190D01*
X40060476Y-53363571D01*
X39965238Y-53315952D01*
X42918095Y-53687380D02*
X42918095Y-52687380D01*
X43489523Y-53687380D02*
X43060952Y-53115952D01*
X43489523Y-52687380D02*
X42918095Y-53258809D01*
X20216904Y-53887380D02*
X20216904Y-52887380D01*
X20455000Y-52887380D01*
X20597857Y-52935000D01*
X20693095Y-53030238D01*
X20740714Y-53125476D01*
X20788333Y-53315952D01*
X20788333Y-53458809D01*
X20740714Y-53649285D01*
X20693095Y-53744523D01*
X20597857Y-53839761D01*
X20455000Y-53887380D01*
X20216904Y-53887380D01*
X21121666Y-52887380D02*
X21788333Y-52887380D01*
X21359761Y-53887380D01*
X24503095Y-53687380D02*
X24503095Y-52687380D01*
X25074523Y-53687380D02*
X24645952Y-53115952D01*
X25074523Y-52687380D02*
X24503095Y-53258809D01*
X57046904Y-53887380D02*
X57046904Y-52887380D01*
X57285000Y-52887380D01*
X57427857Y-52935000D01*
X57523095Y-53030238D01*
X57570714Y-53125476D01*
X57618333Y-53315952D01*
X57618333Y-53458809D01*
X57570714Y-53649285D01*
X57523095Y-53744523D01*
X57427857Y-53839761D01*
X57285000Y-53887380D01*
X57046904Y-53887380D01*
X58475476Y-52887380D02*
X58285000Y-52887380D01*
X58189761Y-52935000D01*
X58142142Y-52982619D01*
X58046904Y-53125476D01*
X57999285Y-53315952D01*
X57999285Y-53696904D01*
X58046904Y-53792142D01*
X58094523Y-53839761D01*
X58189761Y-53887380D01*
X58380238Y-53887380D01*
X58475476Y-53839761D01*
X58523095Y-53792142D01*
X58570714Y-53696904D01*
X58570714Y-53458809D01*
X58523095Y-53363571D01*
X58475476Y-53315952D01*
X58380238Y-53268333D01*
X58189761Y-53268333D01*
X58094523Y-53315952D01*
X58046904Y-53363571D01*
X57999285Y-53458809D01*
X61333095Y-53687380D02*
X61333095Y-52687380D01*
X61904523Y-53687380D02*
X61475952Y-53115952D01*
X61904523Y-52687380D02*
X61333095Y-53258809D01*
X50712380Y-43283095D02*
X49712380Y-43283095D01*
X49712380Y-43045000D01*
X49760000Y-42902142D01*
X49855238Y-42806904D01*
X49950476Y-42759285D01*
X50140952Y-42711666D01*
X50283809Y-42711666D01*
X50474285Y-42759285D01*
X50569523Y-42806904D01*
X50664761Y-42902142D01*
X50712380Y-43045000D01*
X50712380Y-43283095D01*
X49712380Y-41806904D02*
X49712380Y-42283095D01*
X50188571Y-42330714D01*
X50140952Y-42283095D01*
X50093333Y-42187857D01*
X50093333Y-41949761D01*
X50140952Y-41854523D01*
X50188571Y-41806904D01*
X50283809Y-41759285D01*
X50521904Y-41759285D01*
X50617142Y-41806904D01*
X50664761Y-41854523D01*
X50712380Y-41949761D01*
X50712380Y-42187857D01*
X50664761Y-42283095D01*
X50617142Y-42330714D01*
X50512380Y-38996904D02*
X49512380Y-38996904D01*
X50512380Y-38425476D02*
X49940952Y-38854047D01*
X49512380Y-38425476D02*
X50083809Y-38996904D01*
X32297380Y-43283095D02*
X31297380Y-43283095D01*
X31297380Y-43045000D01*
X31345000Y-42902142D01*
X31440238Y-42806904D01*
X31535476Y-42759285D01*
X31725952Y-42711666D01*
X31868809Y-42711666D01*
X32059285Y-42759285D01*
X32154523Y-42806904D01*
X32249761Y-42902142D01*
X32297380Y-43045000D01*
X32297380Y-43283095D01*
X31630714Y-41854523D02*
X32297380Y-41854523D01*
X31249761Y-42092619D02*
X31964047Y-42330714D01*
X31964047Y-41711666D01*
X32097380Y-38996904D02*
X31097380Y-38996904D01*
X32097380Y-38425476D02*
X31525952Y-38854047D01*
X31097380Y-38425476D02*
X31668809Y-38996904D01*
X50712380Y-26773095D02*
X49712380Y-26773095D01*
X49712380Y-26535000D01*
X49760000Y-26392142D01*
X49855238Y-26296904D01*
X49950476Y-26249285D01*
X50140952Y-26201666D01*
X50283809Y-26201666D01*
X50474285Y-26249285D01*
X50569523Y-26296904D01*
X50664761Y-26392142D01*
X50712380Y-26535000D01*
X50712380Y-26773095D01*
X49712380Y-25868333D02*
X49712380Y-25249285D01*
X50093333Y-25582619D01*
X50093333Y-25439761D01*
X50140952Y-25344523D01*
X50188571Y-25296904D01*
X50283809Y-25249285D01*
X50521904Y-25249285D01*
X50617142Y-25296904D01*
X50664761Y-25344523D01*
X50712380Y-25439761D01*
X50712380Y-25725476D01*
X50664761Y-25820714D01*
X50617142Y-25868333D01*
X50512380Y-22486904D02*
X49512380Y-22486904D01*
X50512380Y-21915476D02*
X49940952Y-22344047D01*
X49512380Y-21915476D02*
X50083809Y-22486904D01*
X32297380Y-26773095D02*
X31297380Y-26773095D01*
X31297380Y-26535000D01*
X31345000Y-26392142D01*
X31440238Y-26296904D01*
X31535476Y-26249285D01*
X31725952Y-26201666D01*
X31868809Y-26201666D01*
X32059285Y-26249285D01*
X32154523Y-26296904D01*
X32249761Y-26392142D01*
X32297380Y-26535000D01*
X32297380Y-26773095D01*
X31392619Y-25820714D02*
X31345000Y-25773095D01*
X31297380Y-25677857D01*
X31297380Y-25439761D01*
X31345000Y-25344523D01*
X31392619Y-25296904D01*
X31487857Y-25249285D01*
X31583095Y-25249285D01*
X31725952Y-25296904D01*
X32297380Y-25868333D01*
X32297380Y-25249285D01*
X32097380Y-22486904D02*
X31097380Y-22486904D01*
X32097380Y-21915476D02*
X31525952Y-22344047D01*
X31097380Y-21915476D02*
X31668809Y-22486904D01*
X20216904Y-36742380D02*
X20216904Y-35742380D01*
X20455000Y-35742380D01*
X20597857Y-35790000D01*
X20693095Y-35885238D01*
X20740714Y-35980476D01*
X20788333Y-36170952D01*
X20788333Y-36313809D01*
X20740714Y-36504285D01*
X20693095Y-36599523D01*
X20597857Y-36694761D01*
X20455000Y-36742380D01*
X20216904Y-36742380D01*
X21740714Y-36742380D02*
X21169285Y-36742380D01*
X21455000Y-36742380D02*
X21455000Y-35742380D01*
X21359761Y-35885238D01*
X21264523Y-35980476D01*
X21169285Y-36028095D01*
X24503095Y-36542380D02*
X24503095Y-35542380D01*
X25074523Y-36542380D02*
X24645952Y-35970952D01*
X25074523Y-35542380D02*
X24503095Y-36113809D01*
X36391904Y-31162348D02*
X36391904Y-30705205D01*
X37191904Y-30933776D02*
X36391904Y-30933776D01*
X36391904Y-30514729D02*
X37191904Y-29981395D01*
X36391904Y-29981395D02*
X37191904Y-30514729D01*
X36391904Y-29524252D02*
X36391904Y-29448062D01*
X36430000Y-29371872D01*
X36468095Y-29333776D01*
X36544285Y-29295681D01*
X36696666Y-29257586D01*
X36887142Y-29257586D01*
X37039523Y-29295681D01*
X37115714Y-29333776D01*
X37153809Y-29371872D01*
X37191904Y-29448062D01*
X37191904Y-29524252D01*
X37153809Y-29600443D01*
X37115714Y-29638538D01*
X37039523Y-29676633D01*
X36887142Y-29714729D01*
X36696666Y-29714729D01*
X36544285Y-29676633D01*
X36468095Y-29638538D01*
X36430000Y-29600443D01*
X36391904Y-29524252D01*
X36353809Y-28343300D02*
X37382380Y-29029014D01*
X37191904Y-28076633D02*
X36391904Y-28076633D01*
X36391904Y-27886157D01*
X36430000Y-27771872D01*
X36506190Y-27695681D01*
X36582380Y-27657586D01*
X36734761Y-27619491D01*
X36849047Y-27619491D01*
X37001428Y-27657586D01*
X37077619Y-27695681D01*
X37153809Y-27771872D01*
X37191904Y-27886157D01*
X37191904Y-28076633D01*
X36391904Y-27352824D02*
X36391904Y-26857586D01*
X36696666Y-27124252D01*
X36696666Y-27009967D01*
X36734761Y-26933776D01*
X36772857Y-26895681D01*
X36849047Y-26857586D01*
X37039523Y-26857586D01*
X37115714Y-26895681D01*
X37153809Y-26933776D01*
X37191904Y-27009967D01*
X37191904Y-27238538D01*
X37153809Y-27314729D01*
X37115714Y-27352824D01*
X39731904Y-31451476D02*
X38931904Y-31451476D01*
X38931904Y-31261000D01*
X38970000Y-31146714D01*
X39046190Y-31070523D01*
X39122380Y-31032428D01*
X39274761Y-30994333D01*
X39389047Y-30994333D01*
X39541428Y-31032428D01*
X39617619Y-31070523D01*
X39693809Y-31146714D01*
X39731904Y-31261000D01*
X39731904Y-31451476D01*
X39008095Y-30689571D02*
X38970000Y-30651476D01*
X38931904Y-30575285D01*
X38931904Y-30384809D01*
X38970000Y-30308619D01*
X39008095Y-30270523D01*
X39084285Y-30232428D01*
X39160476Y-30232428D01*
X39274761Y-30270523D01*
X39731904Y-30727666D01*
X39731904Y-30232428D01*
X49891904Y-31451476D02*
X49091904Y-31451476D01*
X49091904Y-31261000D01*
X49130000Y-31146714D01*
X49206190Y-31070523D01*
X49282380Y-31032428D01*
X49434761Y-30994333D01*
X49549047Y-30994333D01*
X49701428Y-31032428D01*
X49777619Y-31070523D01*
X49853809Y-31146714D01*
X49891904Y-31261000D01*
X49891904Y-31451476D01*
X49091904Y-30499095D02*
X49091904Y-30422904D01*
X49130000Y-30346714D01*
X49168095Y-30308619D01*
X49244285Y-30270523D01*
X49396666Y-30232428D01*
X49587142Y-30232428D01*
X49739523Y-30270523D01*
X49815714Y-30308619D01*
X49853809Y-30346714D01*
X49891904Y-30422904D01*
X49891904Y-30499095D01*
X49853809Y-30575285D01*
X49815714Y-30613380D01*
X49739523Y-30651476D01*
X49587142Y-30689571D01*
X49396666Y-30689571D01*
X49244285Y-30651476D01*
X49168095Y-30613380D01*
X49130000Y-30575285D01*
X49091904Y-30499095D01*
X47351904Y-31451476D02*
X46551904Y-31451476D01*
X46551904Y-31261000D01*
X46590000Y-31146714D01*
X46666190Y-31070523D01*
X46742380Y-31032428D01*
X46894761Y-30994333D01*
X47009047Y-30994333D01*
X47161428Y-31032428D01*
X47237619Y-31070523D01*
X47313809Y-31146714D01*
X47351904Y-31261000D01*
X47351904Y-31451476D01*
X47351904Y-30232428D02*
X47351904Y-30689571D01*
X47351904Y-30461000D02*
X46551904Y-30461000D01*
X46666190Y-30537190D01*
X46742380Y-30613380D01*
X46780476Y-30689571D01*
X44050000Y-31470523D02*
X44011904Y-31546714D01*
X44011904Y-31661000D01*
X44050000Y-31775285D01*
X44126190Y-31851476D01*
X44202380Y-31889571D01*
X44354761Y-31927666D01*
X44469047Y-31927666D01*
X44621428Y-31889571D01*
X44697619Y-31851476D01*
X44773809Y-31775285D01*
X44811904Y-31661000D01*
X44811904Y-31584809D01*
X44773809Y-31470523D01*
X44735714Y-31432428D01*
X44469047Y-31432428D01*
X44469047Y-31584809D01*
X44811904Y-31089571D02*
X44011904Y-31089571D01*
X44811904Y-30632428D01*
X44011904Y-30632428D01*
X44811904Y-30251476D02*
X44011904Y-30251476D01*
X44011904Y-30061000D01*
X44050000Y-29946714D01*
X44126190Y-29870523D01*
X44202380Y-29832428D01*
X44354761Y-29794333D01*
X44469047Y-29794333D01*
X44621428Y-29832428D01*
X44697619Y-29870523D01*
X44773809Y-29946714D01*
X44811904Y-30061000D01*
X44811904Y-30251476D01*
X41510000Y-31470523D02*
X41471904Y-31546714D01*
X41471904Y-31661000D01*
X41510000Y-31775285D01*
X41586190Y-31851476D01*
X41662380Y-31889571D01*
X41814761Y-31927666D01*
X41929047Y-31927666D01*
X42081428Y-31889571D01*
X42157619Y-31851476D01*
X42233809Y-31775285D01*
X42271904Y-31661000D01*
X42271904Y-31584809D01*
X42233809Y-31470523D01*
X42195714Y-31432428D01*
X41929047Y-31432428D01*
X41929047Y-31584809D01*
X42271904Y-31089571D02*
X41471904Y-31089571D01*
X42271904Y-30632428D01*
X41471904Y-30632428D01*
X42271904Y-30251476D02*
X41471904Y-30251476D01*
X41471904Y-30061000D01*
X41510000Y-29946714D01*
X41586190Y-29870523D01*
X41662380Y-29832428D01*
X41814761Y-29794333D01*
X41929047Y-29794333D01*
X42081428Y-29832428D01*
X42157619Y-29870523D01*
X42233809Y-29946714D01*
X42271904Y-30061000D01*
X42271904Y-30251476D01*
X52431904Y-31451476D02*
X51631904Y-31451476D01*
X51631904Y-31261000D01*
X51670000Y-31146714D01*
X51746190Y-31070523D01*
X51822380Y-31032428D01*
X51974761Y-30994333D01*
X52089047Y-30994333D01*
X52241428Y-31032428D01*
X52317619Y-31070523D01*
X52393809Y-31146714D01*
X52431904Y-31261000D01*
X52431904Y-31451476D01*
X51898571Y-30308619D02*
X52431904Y-30308619D01*
X51593809Y-30499095D02*
X52165238Y-30689571D01*
X52165238Y-30194333D01*
X54895714Y-30994333D02*
X54933809Y-31032428D01*
X54971904Y-31146714D01*
X54971904Y-31222904D01*
X54933809Y-31337190D01*
X54857619Y-31413380D01*
X54781428Y-31451476D01*
X54629047Y-31489571D01*
X54514761Y-31489571D01*
X54362380Y-31451476D01*
X54286190Y-31413380D01*
X54210000Y-31337190D01*
X54171904Y-31222904D01*
X54171904Y-31146714D01*
X54210000Y-31032428D01*
X54248095Y-30994333D01*
X54171904Y-30308619D02*
X54171904Y-30461000D01*
X54210000Y-30537190D01*
X54248095Y-30575285D01*
X54362380Y-30651476D01*
X54514761Y-30689571D01*
X54819523Y-30689571D01*
X54895714Y-30651476D01*
X54933809Y-30613380D01*
X54971904Y-30537190D01*
X54971904Y-30384809D01*
X54933809Y-30308619D01*
X54895714Y-30270523D01*
X54819523Y-30232428D01*
X54629047Y-30232428D01*
X54552857Y-30270523D01*
X54514761Y-30308619D01*
X54476666Y-30384809D01*
X54476666Y-30537190D01*
X54514761Y-30613380D01*
X54552857Y-30651476D01*
X54629047Y-30689571D01*
X57511904Y-31451476D02*
X56711904Y-31451476D01*
X56711904Y-31261000D01*
X56750000Y-31146714D01*
X56826190Y-31070523D01*
X56902380Y-31032428D01*
X57054761Y-30994333D01*
X57169047Y-30994333D01*
X57321428Y-31032428D01*
X57397619Y-31070523D01*
X57473809Y-31146714D01*
X57511904Y-31261000D01*
X57511904Y-31451476D01*
X56711904Y-30727666D02*
X56711904Y-30194333D01*
X57511904Y-30537190D01*
X59632857Y-31413380D02*
X59632857Y-31146714D01*
X60051904Y-31032428D02*
X60051904Y-31413380D01*
X59251904Y-31413380D01*
X59251904Y-31032428D01*
X59251904Y-30346714D02*
X59251904Y-30499095D01*
X59290000Y-30575285D01*
X59328095Y-30613380D01*
X59442380Y-30689571D01*
X59594761Y-30727666D01*
X59899523Y-30727666D01*
X59975714Y-30689571D01*
X60013809Y-30651476D01*
X60051904Y-30575285D01*
X60051904Y-30422904D01*
X60013809Y-30346714D01*
X59975714Y-30308619D01*
X59899523Y-30270523D01*
X59709047Y-30270523D01*
X59632857Y-30308619D01*
X59594761Y-30346714D01*
X59556666Y-30422904D01*
X59556666Y-30575285D01*
X59594761Y-30651476D01*
X59632857Y-30689571D01*
X59709047Y-30727666D01*
X62172857Y-31184809D02*
X62210952Y-31070523D01*
X62249047Y-31032428D01*
X62325238Y-30994333D01*
X62439523Y-30994333D01*
X62515714Y-31032428D01*
X62553809Y-31070523D01*
X62591904Y-31146714D01*
X62591904Y-31451476D01*
X61791904Y-31451476D01*
X61791904Y-31184809D01*
X61830000Y-31108619D01*
X61868095Y-31070523D01*
X61944285Y-31032428D01*
X62020476Y-31032428D01*
X62096666Y-31070523D01*
X62134761Y-31108619D01*
X62172857Y-31184809D01*
X62172857Y-31451476D01*
X62058571Y-30308619D02*
X62591904Y-30308619D01*
X61753809Y-30499095D02*
X62325238Y-30689571D01*
X62325238Y-30194333D01*
X64712857Y-31184809D02*
X64750952Y-31070523D01*
X64789047Y-31032428D01*
X64865238Y-30994333D01*
X64979523Y-30994333D01*
X65055714Y-31032428D01*
X65093809Y-31070523D01*
X65131904Y-31146714D01*
X65131904Y-31451476D01*
X64331904Y-31451476D01*
X64331904Y-31184809D01*
X64370000Y-31108619D01*
X64408095Y-31070523D01*
X64484285Y-31032428D01*
X64560476Y-31032428D01*
X64636666Y-31070523D01*
X64674761Y-31108619D01*
X64712857Y-31184809D01*
X64712857Y-31451476D01*
X64331904Y-30270523D02*
X64331904Y-30651476D01*
X64712857Y-30689571D01*
X64674761Y-30651476D01*
X64636666Y-30575285D01*
X64636666Y-30384809D01*
X64674761Y-30308619D01*
X64712857Y-30270523D01*
X64789047Y-30232428D01*
X64979523Y-30232428D01*
X65055714Y-30270523D01*
X65093809Y-30308619D01*
X65131904Y-30384809D01*
X65131904Y-30575285D01*
X65093809Y-30651476D01*
X65055714Y-30689571D01*
X64712857Y-20262809D02*
X64750952Y-20148523D01*
X64789047Y-20110428D01*
X64865238Y-20072333D01*
X64979523Y-20072333D01*
X65055714Y-20110428D01*
X65093809Y-20148523D01*
X65131904Y-20224714D01*
X65131904Y-20529476D01*
X64331904Y-20529476D01*
X64331904Y-20262809D01*
X64370000Y-20186619D01*
X64408095Y-20148523D01*
X64484285Y-20110428D01*
X64560476Y-20110428D01*
X64636666Y-20148523D01*
X64674761Y-20186619D01*
X64712857Y-20262809D01*
X64712857Y-20529476D01*
X64331904Y-19386619D02*
X64331904Y-19539000D01*
X64370000Y-19615190D01*
X64408095Y-19653285D01*
X64522380Y-19729476D01*
X64674761Y-19767571D01*
X64979523Y-19767571D01*
X65055714Y-19729476D01*
X65093809Y-19691380D01*
X65131904Y-19615190D01*
X65131904Y-19462809D01*
X65093809Y-19386619D01*
X65055714Y-19348523D01*
X64979523Y-19310428D01*
X64789047Y-19310428D01*
X64712857Y-19348523D01*
X64674761Y-19386619D01*
X64636666Y-19462809D01*
X64636666Y-19615190D01*
X64674761Y-19691380D01*
X64712857Y-19729476D01*
X64789047Y-19767571D01*
X59632857Y-20262809D02*
X59670952Y-20148523D01*
X59709047Y-20110428D01*
X59785238Y-20072333D01*
X59899523Y-20072333D01*
X59975714Y-20110428D01*
X60013809Y-20148523D01*
X60051904Y-20224714D01*
X60051904Y-20529476D01*
X59251904Y-20529476D01*
X59251904Y-20262809D01*
X59290000Y-20186619D01*
X59328095Y-20148523D01*
X59404285Y-20110428D01*
X59480476Y-20110428D01*
X59556666Y-20148523D01*
X59594761Y-20186619D01*
X59632857Y-20262809D01*
X59632857Y-20529476D01*
X59251904Y-19805666D02*
X59251904Y-19310428D01*
X59556666Y-19577095D01*
X59556666Y-19462809D01*
X59594761Y-19386619D01*
X59632857Y-19348523D01*
X59709047Y-19310428D01*
X59899523Y-19310428D01*
X59975714Y-19348523D01*
X60013809Y-19386619D01*
X60051904Y-19462809D01*
X60051904Y-19691380D01*
X60013809Y-19767571D01*
X59975714Y-19805666D01*
X57092857Y-20262809D02*
X57130952Y-20148523D01*
X57169047Y-20110428D01*
X57245238Y-20072333D01*
X57359523Y-20072333D01*
X57435714Y-20110428D01*
X57473809Y-20148523D01*
X57511904Y-20224714D01*
X57511904Y-20529476D01*
X56711904Y-20529476D01*
X56711904Y-20262809D01*
X56750000Y-20186619D01*
X56788095Y-20148523D01*
X56864285Y-20110428D01*
X56940476Y-20110428D01*
X57016666Y-20148523D01*
X57054761Y-20186619D01*
X57092857Y-20262809D01*
X57092857Y-20529476D01*
X57511904Y-19310428D02*
X57511904Y-19767571D01*
X57511904Y-19539000D02*
X56711904Y-19539000D01*
X56826190Y-19615190D01*
X56902380Y-19691380D01*
X56940476Y-19767571D01*
X46932857Y-20205666D02*
X46932857Y-20472333D01*
X47351904Y-20472333D02*
X46551904Y-20472333D01*
X46551904Y-20091380D01*
X46818571Y-19443761D02*
X47351904Y-19443761D01*
X46513809Y-19634238D02*
X47085238Y-19824714D01*
X47085238Y-19329476D01*
X44011904Y-21005666D02*
X44811904Y-20739000D01*
X44011904Y-20472333D01*
X44735714Y-19748523D02*
X44773809Y-19786619D01*
X44811904Y-19900904D01*
X44811904Y-19977095D01*
X44773809Y-20091380D01*
X44697619Y-20167571D01*
X44621428Y-20205666D01*
X44469047Y-20243761D01*
X44354761Y-20243761D01*
X44202380Y-20205666D01*
X44126190Y-20167571D01*
X44050000Y-20091380D01*
X44011904Y-19977095D01*
X44011904Y-19900904D01*
X44050000Y-19786619D01*
X44088095Y-19748523D01*
X44735714Y-18948523D02*
X44773809Y-18986619D01*
X44811904Y-19100904D01*
X44811904Y-19177095D01*
X44773809Y-19291380D01*
X44697619Y-19367571D01*
X44621428Y-19405666D01*
X44469047Y-19443761D01*
X44354761Y-19443761D01*
X44202380Y-19405666D01*
X44126190Y-19367571D01*
X44050000Y-19291380D01*
X44011904Y-19177095D01*
X44011904Y-19100904D01*
X44050000Y-18986619D01*
X44088095Y-18948523D01*
X42203809Y-20200213D02*
X42241904Y-20085927D01*
X42241904Y-19895451D01*
X42203809Y-19819260D01*
X42165714Y-19781165D01*
X42089523Y-19743070D01*
X42013333Y-19743070D01*
X41937142Y-19781165D01*
X41899047Y-19819260D01*
X41860952Y-19895451D01*
X41822857Y-20047832D01*
X41784761Y-20124022D01*
X41746666Y-20162118D01*
X41670476Y-20200213D01*
X41594285Y-20200213D01*
X41518095Y-20162118D01*
X41480000Y-20124022D01*
X41441904Y-20047832D01*
X41441904Y-19857356D01*
X41480000Y-19743070D01*
X41441904Y-19514499D02*
X41441904Y-19057356D01*
X42241904Y-19285927D02*
X41441904Y-19285927D01*
X38970000Y-20548523D02*
X38931904Y-20624714D01*
X38931904Y-20739000D01*
X38970000Y-20853285D01*
X39046190Y-20929476D01*
X39122380Y-20967571D01*
X39274761Y-21005666D01*
X39389047Y-21005666D01*
X39541428Y-20967571D01*
X39617619Y-20929476D01*
X39693809Y-20853285D01*
X39731904Y-20739000D01*
X39731904Y-20662809D01*
X39693809Y-20548523D01*
X39655714Y-20510428D01*
X39389047Y-20510428D01*
X39389047Y-20662809D01*
X39731904Y-20167571D02*
X38931904Y-20167571D01*
X39731904Y-19710428D01*
X38931904Y-19710428D01*
X39731904Y-19329476D02*
X38931904Y-19329476D01*
X38931904Y-19139000D01*
X38970000Y-19024714D01*
X39046190Y-18948523D01*
X39122380Y-18910428D01*
X39274761Y-18872333D01*
X39389047Y-18872333D01*
X39541428Y-18910428D01*
X39617619Y-18948523D01*
X39693809Y-19024714D01*
X39731904Y-19139000D01*
X39731904Y-19329476D01*
X37191904Y-20491380D02*
X36810952Y-20758047D01*
X37191904Y-20948523D02*
X36391904Y-20948523D01*
X36391904Y-20643761D01*
X36430000Y-20567571D01*
X36468095Y-20529476D01*
X36544285Y-20491380D01*
X36658571Y-20491380D01*
X36734761Y-20529476D01*
X36772857Y-20567571D01*
X36810952Y-20643761D01*
X36810952Y-20948523D01*
X36963333Y-20186619D02*
X36963333Y-19805666D01*
X37191904Y-20262809D02*
X36391904Y-19996142D01*
X37191904Y-19729476D01*
X36391904Y-19539000D02*
X37191904Y-19348523D01*
X36620476Y-19196142D01*
X37191904Y-19043761D01*
X36391904Y-18853285D01*
X49472857Y-20205666D02*
X49472857Y-20472333D01*
X49891904Y-20472333D02*
X49091904Y-20472333D01*
X49091904Y-20091380D01*
X49091904Y-19405666D02*
X49091904Y-19786619D01*
X49472857Y-19824714D01*
X49434761Y-19786619D01*
X49396666Y-19710428D01*
X49396666Y-19519952D01*
X49434761Y-19443761D01*
X49472857Y-19405666D01*
X49549047Y-19367571D01*
X49739523Y-19367571D01*
X49815714Y-19405666D01*
X49853809Y-19443761D01*
X49891904Y-19519952D01*
X49891904Y-19710428D01*
X49853809Y-19786619D01*
X49815714Y-19824714D01*
X52012857Y-20205666D02*
X52012857Y-20472333D01*
X52431904Y-20472333D02*
X51631904Y-20472333D01*
X51631904Y-20091380D01*
X51631904Y-19443761D02*
X51631904Y-19596142D01*
X51670000Y-19672333D01*
X51708095Y-19710428D01*
X51822380Y-19786619D01*
X51974761Y-19824714D01*
X52279523Y-19824714D01*
X52355714Y-19786619D01*
X52393809Y-19748523D01*
X52431904Y-19672333D01*
X52431904Y-19519952D01*
X52393809Y-19443761D01*
X52355714Y-19405666D01*
X52279523Y-19367571D01*
X52089047Y-19367571D01*
X52012857Y-19405666D01*
X51974761Y-19443761D01*
X51936666Y-19519952D01*
X51936666Y-19672333D01*
X51974761Y-19748523D01*
X52012857Y-19786619D01*
X52089047Y-19824714D01*
X54552857Y-20205666D02*
X54552857Y-20472333D01*
X54971904Y-20472333D02*
X54171904Y-20472333D01*
X54171904Y-20091380D01*
X54171904Y-19862809D02*
X54171904Y-19329476D01*
X54971904Y-19672333D01*
X62172857Y-20262809D02*
X62210952Y-20148523D01*
X62249047Y-20110428D01*
X62325238Y-20072333D01*
X62439523Y-20072333D01*
X62515714Y-20110428D01*
X62553809Y-20148523D01*
X62591904Y-20224714D01*
X62591904Y-20529476D01*
X61791904Y-20529476D01*
X61791904Y-20262809D01*
X61830000Y-20186619D01*
X61868095Y-20148523D01*
X61944285Y-20110428D01*
X62020476Y-20110428D01*
X62096666Y-20148523D01*
X62134761Y-20186619D01*
X62172857Y-20262809D01*
X62172857Y-20529476D01*
X61868095Y-19767571D02*
X61830000Y-19729476D01*
X61791904Y-19653285D01*
X61791904Y-19462809D01*
X61830000Y-19386619D01*
X61868095Y-19348523D01*
X61944285Y-19310428D01*
X62020476Y-19310428D01*
X62134761Y-19348523D01*
X62591904Y-19805666D01*
X62591904Y-19310428D01*
%LPC*%
D13*
X54159992Y-91439836D03*
D14*
X52059992Y-88839836D03*
X63059992Y-99839836D03*
X54159992Y-96339836D03*
X52060000Y-99840000D03*
X63060000Y-88840000D03*
X60960000Y-96340000D03*
D13*
X60960000Y-91440000D03*
D15*
X57560000Y-95240000D03*
D16*
X59110000Y-95240000D03*
X56010000Y-95240000D03*
D17*
X59960000Y-95240000D03*
X55160000Y-95240000D03*
D18*
X57560000Y-97140000D03*
X57560000Y-93340000D03*
D13*
X35744992Y-91439836D03*
D14*
X33644992Y-88839836D03*
X44644992Y-99839836D03*
X35744992Y-96339836D03*
X33645000Y-99840000D03*
X44645000Y-88840000D03*
X42545000Y-96340000D03*
D13*
X42545000Y-91440000D03*
D15*
X39145000Y-95240000D03*
D16*
X40695000Y-95240000D03*
X37595000Y-95240000D03*
D17*
X41545000Y-95240000D03*
X36745000Y-95240000D03*
D18*
X39145000Y-97140000D03*
X39145000Y-93340000D03*
D13*
X17329992Y-91439836D03*
D14*
X15229992Y-88839836D03*
X26229992Y-99839836D03*
X17329992Y-96339836D03*
X15230000Y-99840000D03*
X26230000Y-88840000D03*
X24130000Y-96340000D03*
D13*
X24130000Y-91440000D03*
D15*
X20730000Y-95240000D03*
D16*
X22280000Y-95240000D03*
X19180000Y-95240000D03*
D17*
X23130000Y-95240000D03*
X18330000Y-95240000D03*
D18*
X20730000Y-97140000D03*
X20730000Y-93340000D03*
D13*
X54159992Y-74294836D03*
D14*
X52059992Y-71694836D03*
X63059992Y-82694836D03*
X54159992Y-79194836D03*
X52060000Y-82695000D03*
X63060000Y-71695000D03*
X60960000Y-79195000D03*
D13*
X60960000Y-74295000D03*
D15*
X57560000Y-78095000D03*
D16*
X59110000Y-78095000D03*
X56010000Y-78095000D03*
D17*
X59960000Y-78095000D03*
X55160000Y-78095000D03*
D18*
X57560000Y-79995000D03*
X57560000Y-76195000D03*
D13*
X35744992Y-74294836D03*
D14*
X33644992Y-71694836D03*
X44644992Y-82694836D03*
X35744992Y-79194836D03*
X33645000Y-82695000D03*
X44645000Y-71695000D03*
X42545000Y-79195000D03*
D13*
X42545000Y-74295000D03*
D15*
X39145000Y-78095000D03*
D16*
X40695000Y-78095000D03*
X37595000Y-78095000D03*
D17*
X41545000Y-78095000D03*
X36745000Y-78095000D03*
D18*
X39145000Y-79995000D03*
X39145000Y-76195000D03*
D13*
X17329992Y-74294836D03*
D14*
X15229992Y-71694836D03*
X26229992Y-82694836D03*
X17329992Y-79194836D03*
X15230000Y-82695000D03*
X26230000Y-71695000D03*
X24130000Y-79195000D03*
D13*
X24130000Y-74295000D03*
D15*
X20730000Y-78095000D03*
D16*
X22280000Y-78095000D03*
X19180000Y-78095000D03*
D17*
X23130000Y-78095000D03*
X18330000Y-78095000D03*
D18*
X20730000Y-79995000D03*
X20730000Y-76195000D03*
D13*
X54159992Y-57149836D03*
D14*
X52059992Y-54549836D03*
X63059992Y-65549836D03*
X54159992Y-62049836D03*
X52060000Y-65550000D03*
X63060000Y-54550000D03*
X60960000Y-62050000D03*
D13*
X60960000Y-57150000D03*
D15*
X57560000Y-60950000D03*
D16*
X59110000Y-60950000D03*
X56010000Y-60950000D03*
D17*
X59960000Y-60950000D03*
X55160000Y-60950000D03*
D18*
X57560000Y-62850000D03*
X57560000Y-59050000D03*
D13*
X35744992Y-57149836D03*
D14*
X33644992Y-54549836D03*
X44644992Y-65549836D03*
X35744992Y-62049836D03*
X33645000Y-65550000D03*
X44645000Y-54550000D03*
X42545000Y-62050000D03*
D13*
X42545000Y-57150000D03*
D15*
X39145000Y-60950000D03*
D16*
X40695000Y-60950000D03*
X37595000Y-60950000D03*
D17*
X41545000Y-60950000D03*
X36745000Y-60950000D03*
D18*
X39145000Y-62850000D03*
X39145000Y-59050000D03*
D13*
X17329992Y-57149836D03*
D14*
X15229992Y-54549836D03*
X26229992Y-65549836D03*
X17329992Y-62049836D03*
X15230000Y-65550000D03*
X26230000Y-54550000D03*
X24130000Y-62050000D03*
D13*
X24130000Y-57150000D03*
D15*
X20730000Y-60950000D03*
D16*
X22280000Y-60950000D03*
X19180000Y-60950000D03*
D17*
X23130000Y-60950000D03*
X18330000Y-60950000D03*
D18*
X20730000Y-62850000D03*
X20730000Y-59050000D03*
D13*
X54159992Y-40004836D03*
D14*
X52059992Y-37404836D03*
X63059992Y-48404836D03*
X54159992Y-44904836D03*
X52060000Y-48405000D03*
X63060000Y-37405000D03*
X60960000Y-44905000D03*
D13*
X60960000Y-40005000D03*
D15*
X57560000Y-43805000D03*
D16*
X59110000Y-43805000D03*
X56010000Y-43805000D03*
D17*
X59960000Y-43805000D03*
X55160000Y-43805000D03*
D18*
X57560000Y-45705000D03*
X57560000Y-41905000D03*
D13*
X35744992Y-40004836D03*
D14*
X33644992Y-37404836D03*
X44644992Y-48404836D03*
X35744992Y-44904836D03*
X33645000Y-48405000D03*
X44645000Y-37405000D03*
X42545000Y-44905000D03*
D13*
X42545000Y-40005000D03*
D15*
X39145000Y-43805000D03*
D16*
X40695000Y-43805000D03*
X37595000Y-43805000D03*
D17*
X41545000Y-43805000D03*
X36745000Y-43805000D03*
D18*
X39145000Y-45705000D03*
X39145000Y-41905000D03*
D13*
X17329992Y-40004836D03*
D14*
X15229992Y-37404836D03*
X26229992Y-48404836D03*
X17329992Y-44904836D03*
X15230000Y-48405000D03*
X26230000Y-37405000D03*
X24130000Y-44905000D03*
D13*
X24130000Y-40005000D03*
D15*
X20730000Y-43805000D03*
D16*
X22280000Y-43805000D03*
X19180000Y-43805000D03*
D17*
X23130000Y-43805000D03*
X18330000Y-43805000D03*
D18*
X20730000Y-45705000D03*
X20730000Y-41905000D03*
D13*
X54159992Y-22859836D03*
D14*
X52059992Y-20259836D03*
X63059992Y-31259836D03*
X54159992Y-27759836D03*
X52060000Y-31260000D03*
X63060000Y-20260000D03*
X60960000Y-27760000D03*
D13*
X60960000Y-22860000D03*
D15*
X57560000Y-26660000D03*
D16*
X59110000Y-26660000D03*
X56010000Y-26660000D03*
D17*
X59960000Y-26660000D03*
X55160000Y-26660000D03*
D18*
X57560000Y-28560000D03*
X57560000Y-24760000D03*
D13*
X35744992Y-22859836D03*
D14*
X33644992Y-20259836D03*
X44644992Y-31259836D03*
X35744992Y-27759836D03*
X33645000Y-31260000D03*
X44645000Y-20260000D03*
X42545000Y-27760000D03*
D13*
X42545000Y-22860000D03*
D15*
X39145000Y-26660000D03*
D16*
X40695000Y-26660000D03*
X37595000Y-26660000D03*
D17*
X41545000Y-26660000D03*
X36745000Y-26660000D03*
D18*
X39145000Y-28560000D03*
X39145000Y-24760000D03*
D13*
X17329992Y-22859836D03*
D14*
X15229992Y-20259836D03*
X26229992Y-31259836D03*
X17329992Y-27759836D03*
X15230000Y-31260000D03*
X26230000Y-20260000D03*
X24130000Y-27760000D03*
D13*
X24130000Y-22860000D03*
D15*
X20730000Y-26660000D03*
D16*
X22280000Y-26660000D03*
X19180000Y-26660000D03*
D17*
X23130000Y-26660000D03*
X18330000Y-26660000D03*
D18*
X20730000Y-28560000D03*
X20730000Y-24760000D03*
D19*
X42545000Y-13970000D03*
D13*
X34925000Y-13970000D03*
D19*
X45720000Y-13970000D03*
D13*
X53340000Y-13970000D03*
X27940000Y-20320000D03*
X17780000Y-20320000D03*
X27940000Y-22860000D03*
X27940000Y-25400000D03*
X27940000Y-27940000D03*
X27940000Y-30480000D03*
X17780000Y-30480000D03*
D20*
X26405000Y-17975000D03*
X24905000Y-13775000D03*
D21*
X16105000Y-15875000D03*
X23105000Y-15875000D03*
D20*
X17905000Y-13775000D03*
X20905000Y-13775000D03*
D22*
X56134000Y-85699600D03*
X59436000Y-85699600D03*
D23*
X61595000Y-85725000D03*
D13*
X53975000Y-85725000D03*
D22*
X37719000Y-85699600D03*
X41021000Y-85699600D03*
D23*
X43180000Y-85725000D03*
D13*
X35560000Y-85725000D03*
D22*
X18669000Y-85699600D03*
X21971000Y-85699600D03*
D23*
X24130000Y-85725000D03*
D13*
X16510000Y-85725000D03*
D22*
X56134000Y-68554600D03*
X59436000Y-68554600D03*
D23*
X61595000Y-68580000D03*
D13*
X53975000Y-68580000D03*
D22*
X37719000Y-68554600D03*
X41021000Y-68554600D03*
D23*
X43180000Y-68580000D03*
D13*
X35560000Y-68580000D03*
D22*
X19304000Y-68554600D03*
X22606000Y-68554600D03*
D23*
X24765000Y-68580000D03*
D13*
X17145000Y-68580000D03*
D24*
X48869600Y-61341000D03*
X48869600Y-58039000D03*
D23*
X48895000Y-55880000D03*
D13*
X48895000Y-63500000D03*
D22*
X37719000Y-51409600D03*
X41021000Y-51409600D03*
D23*
X43180000Y-51435000D03*
D13*
X35560000Y-51435000D03*
D22*
X19304000Y-51409600D03*
X22606000Y-51409600D03*
D23*
X24765000Y-51435000D03*
D13*
X17145000Y-51435000D03*
D22*
X56134000Y-51409600D03*
X59436000Y-51409600D03*
D23*
X61595000Y-51435000D03*
D13*
X53975000Y-51435000D03*
D24*
X48234600Y-44196000D03*
X48234600Y-40894000D03*
D23*
X48260000Y-38735000D03*
D13*
X48260000Y-46355000D03*
D24*
X29819600Y-44196000D03*
X29819600Y-40894000D03*
D23*
X29845000Y-38735000D03*
D13*
X29845000Y-46355000D03*
D24*
X48234600Y-27686000D03*
X48234600Y-24384000D03*
D23*
X48260000Y-22225000D03*
D13*
X48260000Y-29845000D03*
D24*
X29819600Y-27686000D03*
X29819600Y-24384000D03*
D23*
X29845000Y-22225000D03*
D13*
X29845000Y-29845000D03*
D22*
X19304000Y-34264600D03*
X22606000Y-34264600D03*
D23*
X24765000Y-34290000D03*
D13*
X17145000Y-34290000D03*
D25*
X36830000Y-17780000D03*
X64770000Y-33020000D03*
X39370000Y-17780000D03*
X41910000Y-17780000D03*
X44450000Y-17780000D03*
X46990000Y-17780000D03*
X49530000Y-17780000D03*
X52070000Y-17780000D03*
X54610000Y-17780000D03*
X57150000Y-17780000D03*
X59690000Y-17780000D03*
X62230000Y-17780000D03*
X64770000Y-17780000D03*
X62230000Y-33020000D03*
X59690000Y-33020000D03*
X57150000Y-33020000D03*
X54610000Y-33020000D03*
X52070000Y-33020000D03*
X49530000Y-33020000D03*
X46990000Y-33020000D03*
X44450000Y-33020000D03*
X41910000Y-33020000D03*
X39370000Y-33020000D03*
D26*
X36830000Y-33020000D03*
M02*
